SplineFontDB: 3.0
FontName: TechnaSans-Regular
FullName: Techna Sans Regular
FamilyName: Techna Sans
Weight: Regular
Copyright: Copyright (c) 2019, Carl Enlund
Version: 1.002
ItalicAngle: 0
UnderlinePosition: -150
UnderlineWidth: 50
Ascent: 800
Descent: 200
InvalidEm: 0
LayerCount: 3
Layer: 0 0 "Back" 1
Layer: 1 0 "Fore" 0
Layer: 2 0 "Thin" 1
XUID: [1021 637 837473831 1446149]
StyleMap: 0x0040
FSType: 0
OS2Version: 0
OS2_WeightWidthSlopeOnly: 0
OS2_UseTypoMetrics: 1
CreationTime: 1557605594
ModificationTime: 1560455324
PfmFamily: 33
TTFWeight: 400
TTFWidth: 5
LineGap: 90
VLineGap: 0
Panose: 2 0 0 0 0 0 0 0 0 0
OS2TypoAscent: 0
OS2TypoAOffset: 1
OS2TypoDescent: 0
OS2TypoDOffset: 1
OS2TypoLinegap: 0
OS2WinAscent: 0
OS2WinAOffset: 1
OS2WinDescent: 0
OS2WinDOffset: 1
HheadAscent: 0
HheadAOffset: 1
HheadDescent: 0
HheadDOffset: 1
OS2Vendor: 'UKWN'
Lookup: 1 0 0 "'tnum' Tabular Numbers lookup 3" { "'tnum' Tabular Numbers lookup 3-1"  } ['tnum' ('DFLT' <'dflt' > 'grek' <'dflt' > 'latn' <'dflt' > ) ]
Lookup: 1 0 0 "'pnum' Proportional Numbers lookup 2" { "'pnum' Proportional Numbers lookup 2-1"  } ['pnum' ('DFLT' <'dflt' > 'grek' <'dflt' > 'latn' <'dflt' > ) ]
Lookup: 1 0 0 "'ss01' Style Set 1 in Latin lookup 1" { "'ss01' Style Set 1 in Latin lookup 1-1"  } ['ss01' ('DFLT' <'dflt' > 'latn' <'dflt' > ) ]
Lookup: 4 0 1 "'liga' Standard Ligatures in Latin lookup 0" { "'liga' Standard Ligatures in Latin lookup 0-1"  } ['liga' ('DFLT' <'dflt' > 'latn' <'dflt' > ) ]
Lookup: 258 0 0 "'kern' Horizontal Kerning in Latin lookup 0" { "'kern' Horizontal Kerning in Latin lookup 0-2" [10,15,4] "'kern' Horizontal Kerning in Latin lookup 0-1" [150,0,4] } ['kern' ('DFLT' <'dflt' > 'latn' <'dflt' > ) ]
MarkAttachClasses: 1
DEI: 91125
KernClass2: 54 42 "'kern' Horizontal Kerning in Latin lookup 0-1"
 108 a h m n agrave aacute acircumflex atilde adieresis aring ntilde amacron abreve aogonek nacute uni0146 ncaron
 76 b o p ograve oacute ocircumflex otilde odieresis thorn omacron ohungarumlaut

StartChar: D
Encoding: 36 68 0
Width: 688
VWidth: 0
Flags: HMW
AnchorPoint: "Top" 323 744 basechar 0
LayerCount: 3
Fore
SplineSet
314 121 m 1
 314 0 l 1
 140 0 l 1
 140 121 l 1
 314 121 l 1
324 688 m 5
 318 567 l 5
 140 567 l 1
 140 688 l 1
 324 688 l 5
58 0 m 1
 58 688 l 1
 192 688 l 1
 192 0 l 1
 58 0 l 1
324 688 m 5
 549.057617188 688 670 540.865234375 670 350 c 3
 670 152.017578125 545.622070312 0 314 0 c 1
 314 121 l 1
 463.310546875 121 534 221.337890625 534 346 c 3
 534 468.446289062 464.620117188 567 318 567 c 5
 324 688 l 5
EndSplineSet
EndChar

StartChar: E
Encoding: 37 69 1
Width: 547
VWidth: 0
Flags: HMW
AnchorPoint: "Ogonek" 385 0 basechar 0
AnchorPoint: "Top" 296 744 basechar 0
LayerCount: 3
Fore
SplineSet
123 413.916992188 m 5
 453 413.916992188 l 5
 421 293 l 5
 123 292.916992188 l 5
 123 413.916992188 l 5
123 122 m 5
 512 122 l 5
 545 0 l 5
 123 0 l 5
 123 122 l 5
123 688 m 5
 523 688 l 5
 491 566 l 5
 123 566 l 5
 123 688 l 5
58 0 m 5
 58 688 l 5
 192 688 l 5
 192 0 l 5
 58 0 l 5
EndSplineSet
EndChar

StartChar: C
Encoding: 35 67 2
Width: 602
VWidth: 0
Flags: HMW
AnchorPoint: "Top" 376 744 basechar 0
AnchorPoint: "Cedilla" 380 0 basechar 0
LayerCount: 3
Fore
SplineSet
551 544 m 1
 520.72972973 555.44 474.378378378 570 411 570 c 3
 300.296875 570 155 517.692382812 155 347 c 3
 155 179.008776542 288.494140625 112 419 112 c 3
 479.19047619 112 537.5 126.848484848 577 147 c 1
 577 19 l 1
 546.593439276 4.55563038793 486.29243608 -11 411 -11 c 3
 235.42578125 -11 18 71.8342784535 18 339 c 3
 18 629.799382242 264.901367188 697 430 697 c 3
 501.342713156 697 558.624831211 681.211222331 584 672 c 1
 551 544 l 1
EndSplineSet
EndChar

StartChar: G
Encoding: 39 71 3
Width: 690
VWidth: 0
Flags: HMW
AnchorPoint: "Bottom" 389 -44 basechar 0
AnchorPoint: "Top" 387 744 basechar 0
LayerCount: 3
Fore
SplineSet
592 538 m 1
 556 552.180679087 495 571 418 571 c 3
 303.630859375 571 155 523.383789062 155 347 c 3
 155 180 280.211914062 111 429 111 c 3
 489.098632812 111 555.646496357 128.59375 587 145 c 1
 635 18 l 1
 591.046511628 4.037109375 507.046511628 -11 425 -11 c 3
 227.551757812 -11 18 75.7607421875 18 341 c 3
 18 631 267.224609375 697 429 697 c 3
 525.09765625 697 582.650390625 681.545808261 625 667 c 1
 592 538 l 1
506 18 m 1
 506 350 l 1
 635 350 l 1
 635 18 l 1
 506 18 l 1
372 400 m 1
 635 400 l 1
 635 280 l 1
 340 280 l 1
 372 400 l 1
EndSplineSet
EndChar

StartChar: T
Encoding: 52 84 4
Width: 565
VWidth: 0
Flags: HMW
AnchorPoint: "Bottom" 293 -44 basechar 0
AnchorPoint: "Cedilla" 293 0 basechar 0
AnchorPoint: "Top" 292 744 basechar 0
LayerCount: 3
Fore
SplineSet
563 688 m 5
 563 566 l 5
 -6 566 l 5
 26 688 l 5
 563 688 l 5
225 0 m 5
 225 639 l 5
 359 639 l 5
 359 0 l 5
 225 0 l 5
EndSplineSet
EndChar

StartChar: H
Encoding: 40 72 5
Width: 658
VWidth: 0
Flags: HMW
LayerCount: 3
Fore
SplineSet
118 413.916992188 m 1
 540 413.916992188 l 1
 540 293 l 1
 118 292.916992188 l 1
 118 413.916992188 l 1
466 0 m 1
 466 688 l 1
 600 688 l 1
 600 0 l 1
 466 0 l 1
58 0 m 1
 58 688 l 1
 192 688 l 1
 192 0 l 1
 58 0 l 1
EndSplineSet
EndChar

StartChar: N
Encoding: 46 78 6
Width: 670
VWidth: 0
Flags: HMW
AnchorPoint: "Bottom" 338 -44 basechar 0
AnchorPoint: "Top" 335 744 basechar 0
LayerCount: 3
Fore
SplineSet
115 654 m 5
 151 688 l 1
 229 688 l 1
 568 34 l 1
 534 0 l 1
 455 0 l 1
 115 654 l 5
480 0 m 1
 480 688 l 1
 612 688 l 1
 612 0 l 1
 480 0 l 1
58 0 m 1
 58 688 l 1
 190 688 l 1
 190 0 l 1
 58 0 l 1
EndSplineSet
EndChar

StartChar: A
Encoding: 33 65 7
Width: 643
VWidth: 0
Flags: HMW
AnchorPoint: "Ogonek" 531 0 basechar 0
AnchorPoint: "Top" 322 744 basechar 0
LayerCount: 3
Fore
SplineSet
501 0 m 1
 287 688 l 1
 422 688 l 1
 640 0 l 1
 501 0 l 1
3 0 m 1
 226 688 l 5
 355 688 l 5
 138 0 l 1
 3 0 l 1
114 268 m 1
 530 268 l 1
 530 154 l 1
 114 154 l 1
 114 268 l 1
EndSplineSet
EndChar

StartChar: B
Encoding: 34 66 8
Width: 587
VWidth: 0
Flags: HMW
LayerCount: 3
Fore
SplineSet
329 116 m 5
 338 0 l 5
 123 0 l 5
 123 116 l 5
 329 116 l 5
401 406 m 5
 401 292 l 5
 123 292 l 5
 123 406 l 5
 401 406 l 5
350 372 m 5
 480.246376812 372 559 293.446327684 559 196 c 7
 559 83 480 0 338 0 c 5
 329 116 l 5
 389 116 419 152.556818182 419 204 c 7
 419 256.11627907 389 292 329 292 c 5
 350 372 l 5
333 688 m 5
 323 570 l 5
 123 570 l 5
 123 688 l 5
 333 688 l 5
58 0 m 5
 58 688 l 5
 192 688 l 5
 192 0 l 5
 58 0 l 5
333 688 m 5
 468.346153846 688 540 609 540 511 c 7
 540 415.431137725 475.648351648 343 357 343 c 5
 323 406 l 5
 378.325301205 406 405 440 405 487 c 7
 405 534.573170732 378.325301205 570 323 570 c 5
 333 688 l 5
EndSplineSet
EndChar

StartChar: F
Encoding: 38 70 9
Width: 521
VWidth: 0
Flags: HMW
LayerCount: 3
Fore
SplineSet
123 406.916992188 m 1
 449 406.916992188 l 1
 417 286 l 1
 123 286 l 1
 123 406.916992188 l 1
  Spiro
    123 406.917 v
    449 406.917 v
    417 286 v
    123 286 v
    0 0 z
  EndSpiro
123 688 m 1
 523 688 l 1
 490 566 l 1
 123 566 l 1
 123 688 l 1
58 0 m 1
 58 688 l 1
 192 688 l 1
 192 0 l 1
 58 0 l 1
  Spiro
    58 0 v
    58 688 v
    192 688 v
    192 0 v
    0 0 z
  EndSpiro
EndSplineSet
Validated: 5
EndChar

StartChar: I
Encoding: 41 73 10
Width: 260
VWidth: 0
Flags: HMW
AnchorPoint: "Ogonek" 104 0 basechar 0
AnchorPoint: "Top" 130 744 basechar 0
LayerCount: 3
Fore
SplineSet
63 0 m 1
 63 688 l 1
 197 688 l 1
 197 0 l 1
 63 0 l 1
EndSplineSet
EndChar

StartChar: L
Encoding: 44 76 11
Width: 513
VWidth: 0
Flags: HMW
AnchorPoint: "Bottom" 287 -44 basechar 0
AnchorPoint: "Caron" 339 688 basechar 0
AnchorPoint: "Top" 126 744 basechar 0
LayerCount: 3
Fore
SplineSet
58 0 m 1
 58 688 l 1
 192 688 l 1
 192 0 l 1
 58 0 l 1
123 0 m 5
 123 122 l 5
 515 122 l 5
 484 0 l 5
 123 0 l 5
EndSplineSet
EndChar

StartChar: M
Encoding: 45 77 12
Width: 765
VWidth: 0
Flags: HMW
LayerCount: 3
Fore
SplineSet
573 0 m 1
 573 688 l 1
 707 688 l 1
 707 0 l 1
 573 0 l 1
334 243 m 1
 334 292 l 5
 540 688 l 1
 654 688 l 1
 437 243 l 1
 334 243 l 1
330 243 m 1
 108 688 l 1
 227 688 l 1
 433 299 l 5
 433 243 l 1
 330 243 l 1
58 0 m 1
 58 688 l 1
 192 688 l 1
 192 0 l 1
 58 0 l 1
EndSplineSet
EndChar

StartChar: O
Encoding: 47 79 13
Width: 784
VWidth: 0
Flags: HMW
AnchorPoint: "Top" 392 744 basechar 0
LayerCount: 3
Fore
SplineSet
392 705 m 3
 636.69140625 705 766 538.086914062 766 346 c 3
 766 151.690429688 636.69140625 -17 392 -17 c 3
 147.30859375 -17 18 151.690429688 18 346 c 3
 18 538.086914062 147.30859375 705 392 705 c 3
392 582 m 3
 236.582527737 582 155 467.966386554 155 346 c 3
 155 221.966231922 236.582527737 106 392 106 c 3
 547.417472263 106 629 221.966231922 629 346 c 3
 629 467.966386554 547.417472263 582 392 582 c 3
EndSplineSet
EndChar

StartChar: P
Encoding: 48 80 14
Width: 564
VWidth: 0
Flags: HMW
LayerCount: 3
Fore
SplineSet
319 381 m 5
 319 261 l 1
 140 261 l 1
 140 381 l 5
 319 381 l 5
332 688 m 1
 322 567 l 1
 140 567 l 1
 140 688 l 1
 332 688 l 1
58 0 m 1
 58 688 l 1
 192 688 l 1
 192 0 l 1
 58 0 l 1
332 688 m 1
 475.459077592 688 549 596.690429688 549 481 c 3
 549 354.114257812 471.022780697 261 319 261 c 1
 319 381 l 5
 384.461914062 381 413 422.958007812 413 476 c 3
 413 526.419921875 385.372930113 567 322 567 c 1
 332 688 l 1
EndSplineSet
EndChar

StartChar: Q
Encoding: 49 81 15
Width: 784
VWidth: 0
Flags: HMW
LayerCount: 3
Fore
SplineSet
637 -71 m 5
 358 239 l 5
 449 316 l 5
 728 6 l 5
 637 -71 l 5
EndSplineSet
Refer: 13 79 N 1 0 0 1 -2 0 2
EndChar

StartChar: R
Encoding: 50 82 16
Width: 577
VWidth: 0
Flags: HMW
AnchorPoint: "Bottom" 297 -44 basechar 0
AnchorPoint: "Top" 283 744 basechar 0
LayerCount: 3
Fore
SplineSet
365 382 m 1
 365 268 l 1
 140 268 l 1
 140 382 l 1
 365 382 l 1
334 688 m 1
 323 567 l 1
 140 567 l 1
 140 688 l 1
 334 688 l 1
58 0 m 1
 58 688 l 1
 192 688 l 1
 192 0 l 1
 58 0 l 1
334 688 m 1
 475.380148329 688 549 599.302734375 549 483 c 3
 549 360.708007812 476.212890625 268 309 268 c 1
 320 382 l 1
 384.765861092 382 413 422.958186324 413 476 c 3
 413 526.419292535 385.676639766 567 323 567 c 1
 334 688 l 1
400 0 m 1
 253 316 l 1
 400 316 l 5
 549 0 l 1
 400 0 l 1
EndSplineSet
EndChar

StartChar: U
Encoding: 53 85 17
Width: 632
VWidth: 0
Flags: HMW
AnchorPoint: "Ogonek" 349 1 basechar 0
AnchorPoint: "Top" 315 744 basechar 0
LayerCount: 3
Fore
SplineSet
190 258 m 2
 190 155.568974799 231.829983619 107 316 107 c 3
 400.170016381 107 442 155.568974799 442 258 c 2
 442 688 l 1
 576 688 l 1
 576 241 l 2
 576 76.3013807219 486.106362039 -16 316 -16 c 3
 145.893637961 -16 56 76.3013807219 56 241 c 2
 56 688 l 1
 190 688 l 1
 190 258 l 2
EndSplineSet
EndChar

StartChar: V
Encoding: 54 86 18
Width: 635
VWidth: 0
Flags: HMW
LayerCount: 3
Fore
SplineSet
277 0 m 5
 484 688 l 1
 629 688 l 1
 404 0 l 5
 277 0 l 5
227 0 m 5
 6 688 l 1
 155 688 l 1
 358 0 l 5
 227 0 l 5
EndSplineSet
EndChar

StartChar: Z
Encoding: 58 90 19
Width: 547
VWidth: 0
Flags: HMW
AnchorPoint: "Top" 294 744 basechar 0
LayerCount: 3
Fore
SplineSet
19 15 m 1
 101 121 l 1
 549 121 l 1
 515 0 l 1
 19 0 l 1
 19 15 l 1
534 673 m 1
 451 567 l 1
 21 567 l 1
 55 688 l 1
 534 688 l 1
 534 673 l 1
19 15 m 1
 376 661 l 1
 534 673 l 1
 177 29 l 1
 19 15 l 1
EndSplineSet
EndChar

StartChar: W
Encoding: 55 87 21
Width: 929
VWidth: 0
Flags: HMW
LayerCount: 3
Fore
SplineSet
630 0 m 1
 770 688 l 1
 909 688 l 1
 753 0 l 1
 630 0 l 1
590 0 m 1
 413 688 l 1
 535 688 l 1
 714 0 l 1
 590 0 l 1
217 0 m 1
 398 688 l 1
 514 688 l 1
 334 0 l 1
 217 0 l 1
174 0 m 1
 20 688 l 1
 163 688 l 1
 301 0 l 1
 174 0 l 1
EndSplineSet
EndChar

StartChar: Y
Encoding: 57 89 22
Width: 571
VWidth: 0
Flags: HMW
AnchorPoint: "Top" 286 744 basechar 0
LayerCount: 3
Fore
SplineSet
219 0 m 1
 219 348 l 1
 353 348 l 1
 353 0 l 1
 219 0 l 1
229 270 m 1
 426 688 l 1
 576 688 l 1
 348 263 l 1
 229 270 l 1
222 261 m 1
 -5 688 l 1
 149 688 l 1
 346 273 l 1
 222 261 l 1
EndSplineSet
EndChar

StartChar: X
Encoding: 56 88 23
Width: 600
VWidth: 0
Flags: HMW
LayerCount: 3
Fore
SplineSet
148 0 m 1
 -7 0 l 1
 211.015625 356.854492188 l 1
 9 688 l 1
 166 688 l 1
 302.1953125 452.426757812 l 1
 439 688 l 1
 593 688 l 1
 389.020507812 358.194335938 l 1
 607 0 l 1
 451 0 l 1
 297.840820312 262.62109375 l 1
 148 0 l 1
EndSplineSet
EndChar

StartChar: S
Encoding: 51 83 24
Width: 501
VWidth: 0
Flags: HMW
AnchorPoint: "Bottom" 260 -44 basechar 0
AnchorPoint: "Cedilla" 269 0 basechar 0
AnchorPoint: "Top" 275 744 basechar 0
LayerCount: 3
Fore
SplineSet
459 666 m 1
 428 540 l 1
 369.390728477 568.8 322.701986755 576 278 576 c 3
 210 576 167 553.306666667 167 502 c 3
 167 463.108563159 190.94319844 446.863161253 247.784179688 423.268554688 c 2
 331.750976562 388.4140625 l 2
 421.129923681 351.312994816 483 300.425722362 483 196 c 3
 483 63 389 -10 239 -10 c 3
 161 -10 89 8.22448979592 40 37 c 1
 40 172 l 1
 100 132.892307693 175 110 248 110 c 3
 314 110 349 133.703703704 349 190 c 3
 349 225.953012751 318.909073465 245.784828632 256.130859375 272.313476562 c 2
 163.96484375 311.260742188 l 2
 98.8972431033 338.756832897 33 380.579852764 33 496 c 3
 33 621 128 698 292 698 c 3
 352.636904762 698 420.232142857 685.612903226 459 666 c 1
EndSplineSet
EndChar

StartChar: K
Encoding: 43 75 25
Width: 599
VWidth: 0
Flags: HMW
AnchorPoint: "Bottom" 313 -44 basechar 0
LayerCount: 3
Fore
SplineSet
165 358 m 1
 332 358 l 1
 611 0 l 1
 440 0 l 1
 165 358 l 1
166 349 m 1
 438 688 l 5
 600 688 l 5
 327 349 l 1
 166 349 l 1
58 0 m 1
 58 688 l 1
 192 688 l 1
 192 0 l 1
 58 0 l 1
EndSplineSet
EndChar

StartChar: J
Encoding: 42 74 26
Width: 460
VWidth: 0
Flags: HMW
LayerCount: 3
Fore
SplineSet
342 688 m 1
 342 566 l 1
 46 566 l 1
 78 688 l 1
 342 688 l 1
14 157 m 1
 58 129 108 112 162 112 c 3
 230 112 272 148 272 228 c 2
 272 688 l 1
 406 688 l 1
 406 216 l 2
 406 65 321 -10 168 -10 c 3
 107 -10 50 6 14 28 c 1
 14 157 l 1
EndSplineSet
EndChar

StartChar: o
Encoding: 79 111 27
Width: 584
VWidth: 0
Flags: HMW
AnchorPoint: "Top" 292 578 basechar 0
LayerCount: 3
Fore
SplineSet
292 518 m 3
 463.567382812 518 562 402 562 252 c 3
 562 101 463.567382812 -15 292 -15 c 3
 120.432617188 -15 22 101 22 252 c 3
 22 402 120.432617188 518 292 518 c 3
292 406 m 3
 200.461914062 406 152 335.17294151 152 252 c 3
 152 168.840054382 200.461914062 97 292 97 c 7
 383.538085938 97 432 168.840054382 432 252 c 3
 432 335.17294151 383.538085938 406 292 406 c 3
EndSplineSet
Layer: 2
SplineSet
292 504 m 3
 451.494140625 504 543 391.052734375 543 245 c 7
 543 97.958984375 451.494140625 -15 292 -15 c 3
 132.505859375 -15 41 97.958984375 41 245 c 3
 41 391.052734375 132.505859375 504 292 504 c 3
292 451 m 3
 165.154296875 451 98 356.2578125 98 245 c 3
 98 133.94140625 165.154296875 38 292 38 c 3
 418.845703125 38 486 133.94140625 486 245 c 7
 486 356.2578125 418.845703125 451 292 451 c 3
EndSplineSet
EndChar

StartChar: i
Encoding: 73 105 28
Width: 233
VWidth: 0
Flags: HMW
AnchorPoint: "Ogonek" 92 0 basechar 0
LayerCount: 3
Fore
SplineSet
50 576 m 5
 50 702 l 5
 183 702 l 5
 183 576 l 5
 50 576 l 5
52 0 m 1
 52 503 l 1
 181 503 l 1
 181 0 l 1
 52 0 l 1
EndSplineSet
EndChar

StartChar: hyphen
Encoding: 13 45 29
Width: 370
VWidth: 0
Flags: HMW
LayerCount: 3
Fore
SplineSet
336 368 m 5
 336 246 l 5
 22 246 l 1
 54 368 l 1
 336 368 l 5
EndSplineSet
Validated: 1
EndChar

StartChar: l
Encoding: 76 108 30
Width: 235
VWidth: 0
Flags: HMW
AnchorPoint: "Bottom" 118 -44 basechar 0
AnchorPoint: "Caron" 246 688 basechar 0
AnchorPoint: "Top" 118 759 basechar 0
LayerCount: 3
Fore
SplineSet
53 0 m 1
 53 718 l 1
 182 718 l 1
 182 0 l 1
 53 0 l 1
EndSplineSet
EndChar

StartChar: n
Encoding: 78 110 31
Width: 540
VWidth: 0
Flags: HMW
AnchorPoint: "Bottom" 277 -44 basechar 0
AnchorPoint: "Top" 271 574 basechar 0
LayerCount: 3
Fore
SplineSet
52 0 m 1
 52 503 l 1
 177 503 l 1
 178 360 l 1
 181 360 l 1
 181 0 l 1
 52 0 l 1
158 335 m 1
 158 441.868493368 224.16015625 512 327 512 c 3
 431.403320312 512 494 440.224411868 494 331 c 2
 494 0 l 1
 365 0 l 1
 365 298 l 6
 365 356.999465461 336.674804688 396 278 396 c 7
 216.6328125 396 181 356.296938296 181 283 c 5
 158 335 l 1
EndSplineSet
Layer: 2
SplineSet
70 0 m 1
 70 493 l 5
 120 493 l 5
 121 350 l 5
 124 350 l 5
 124 0 l 1
 70 0 l 1
111 344 m 5
 111 439.396484375 184.4765625 502 297 502 c 7
 409.029296875 502 475 426.990234375 475 314 c 6
 475 0 l 1
 420 0 l 1
 420 296 l 6
 420 396 375.395507812 456 283 456 c 7
 182.408203125 456 124 396.62109375 124 287 c 5
 111 344 l 5
EndSplineSet
EndChar

StartChar: h
Encoding: 72 104 32
Width: 540
VWidth: 0
Flags: HMW
LayerCount: 3
Fore
SplineSet
158 335 m 1
 158 441.868493368 224.16015625 512 327 512 c 3
 431.403320312 512 494 440.224411868 494 331 c 2
 494 0 l 1
 365 0 l 1
 365 298 l 6
 365 356.999023438 336.674804688 396 278 396 c 7
 216.6328125 396 181 356.296875 181 283 c 5
 158 335 l 1
52 0 m 1
 52 718 l 1
 181 718 l 1
 181 0 l 1
 52 0 l 1
EndSplineSet
EndChar

StartChar: a
Encoding: 65 97 33
Width: 483
VWidth: 0
Flags: HMW
AnchorPoint: "Ogonek" 338 0 basechar 0
AnchorPoint: "Top" 239 574 basechar 0
LayerCount: 3
Fore
SplineSet
311 327 m 5
 311 375.355263158 264 402 199 402 c 7
 136.630573248 402 91.8025477707 388.736842105 46 366 c 5
 76 486 l 5
 117.449275362 503 163.001135933 512 219 512 c 7
 363 512 438 446 438 327 c 5
 311 327 l 5
438 327 m 5
 438 0 l 5
 317 0 l 5
 316 143 l 5
 311 143 l 5
 311 327 l 5
 438 327 l 5
151 158 m 7
 151 121.569230769 171.298507463 94 219 94 c 7
 272 94 311 131.623762376 311 194 c 5
 328 149 l 5
 328 54 270 -8 183 -8 c 7
 84 -8 22 57 22 142 c 7
 22 281.161676647 143.990485171 299.161667452 245 308 c 6
 325 315 l 5
 325 229 l 5
 231 220 l 6
 180.352398469 215.150761556 151 198 151 158 c 7
EndSplineSet
Layer: 2
SplineSet
363 319 m 1
 363 404.228515625 314.083007812 450 231 450 c 3
 156.646484375 450 114.740234375 428.48828125 74 401 c 1
 90 464 l 1
 130.1796875 488.516601562 178.200195312 502 237 502 c 3
 351.41796875 502 418 438.72265625 418 332 c 1
 363 319 l 1
  Spiro
    363 319 v
    347.272 390.784 o
    302.089 435.007 o
    231 450 o
    166.36 443.417 o
    116.243 425.899 o
    74 401 v
    90 464 v
    132.856 484.731 o
    181.736 497.605 o
    237 502 o
    334.698 481.682 o
    396.543 423.431 o
    418 332 v
    0 0 z
  EndSpiro
418 332 m 1
 418 0 l 1
 369 0 l 1
 368 143 l 1
 363 143 l 1
 363 319 l 1
 418 332 l 1
  Spiro
    418 332 v
    418 0 v
    369 0 v
    368 143 v
    363 143 v
    363 319 v
    0 0 z
  EndSpiro
102 141 m 3
 102 80.58203125 147.383789062 42 221 42 c 3
 309.07421875 42 363 96.4541015625 363 198 c 1
 380 149 l 1
 380 54.55078125 306.65625 -7 212 -7 c 3
 116.98828125 -7 45 47.7880859375 45 135 c 3
 45 252.836914062 155.174804688 270.96484375 261 281 c 2
 377 292 l 1
 377 249 l 1
 247.0625 236.9921875 l 2
 159.823242188 228.930664062 102 204.56640625 102 141 c 3
  Spiro
    102 141 o
    116.464 88.5248 o
    157.483 54.2165 o
    221 42 o
    296.896 59.8433 o
    345.791 112.494 o
    363 198 v
    380 149 v
    357.522 66.6475 o
    297.55 12.4179 o
    212 -7 o
    126.55 10.4004 o
    67.14 59.4876 o
    45 135 o
    77.4225 222.932 o
    158.062 264.9 o
    261 281 [
    377 292 v
    377 249 v
    247.062 236.992 ]
    170.745 222.669 o
    120.187 192.307 o
    0 0 z
  EndSpiro
EndSplineSet
Substitution2: "'ss01' Style Set 1 in Latin lookup 1-1" a.ss01
EndChar

StartChar: u
Encoding: 85 117 34
Width: 536
VWidth: 0
Flags: HMW
AnchorPoint: "Ogonek" 382 1 basechar 0
AnchorPoint: "Top" 268 574 basechar 0
LayerCount: 3
Fore
SplineSet
484 503 m 1
 484 0 l 1
 361 0 l 1
 360 143 l 1
 355 143 l 1
 355 503 l 1
 484 503 l 1
372 155 m 1
 372 52.9619140625 316.180664062 -9 214 -9 c 3
 107.840820312 -9 46 62.97717148 46 172 c 2
 46 503 l 1
 175 503 l 1
 175 203 l 6
 175 145.204101562 202.674804688 107 260 107 c 7
 320.1015625 107 355 144.162109375 355 222 c 5
 372 155 l 1
EndSplineSet
EndChar

StartChar: b
Encoding: 66 98 35
Width: 602
VWidth: 0
Flags: HMW
LayerCount: 3
Fore
SplineSet
348 -12 m 7
 228.198660858 -12 150 76.889451101 150 188 c 1
 150 314 l 1
 150 425.152222938 227.421910604 515 350 515 c 7
 490.671875 515 580 400.303710938 580 251 c 3
 580 102.69140625 490.673828125 -12 348 -12 c 7
315 98 m 7
 403.26953125 98 450 166.34 450 251 c 3
 450 335.649006622 403.26953125 405 315 405 c 3
 226.73046875 405 180 335.649006622 180 251 c 3
 180 166.34 226.73046875 98 315 98 c 7
181 143 m 1
 178 143 l 1
 177 0 l 1
 52 0 l 1
 52 718 l 1
 181 718 l 1
 181 302 l 1
 180 302 l 1
 180 202 l 1
 181 202 l 1
 181 143 l 1
EndSplineSet
EndChar

StartChar: d
Encoding: 68 100 36
Width: 602
VWidth: 0
Flags: HMW
AnchorPoint: "Caron" 614 688 basechar 0
LayerCount: 3
Fore
SplineSet
254 515 m 3
 373.801757812 515 452 426.110351562 452 315 c 1
 452 189 l 1
 452 77.84765625 374.578125 -12 252 -12 c 3
 111.328125 -12 22 102.696289062 22 252 c 3
 22 400.30859375 111.326171875 515 254 515 c 3
287 405 m 3
 198.73046875 405 152 336.106445312 152 252 c 3
 152 167.900390625 198.73046875 98 287 98 c 3
 375.26953125 98 422 167.900390625 422 252 c 3
 422 336.106445312 375.26953125 405 287 405 c 3
421 143 m 1
 421 202 l 1
 422 202 l 1
 422 302 l 1
 421 302 l 1
 421 718 l 1
 550 718 l 1
 550 0 l 1
 425 0 l 1
 424 143 l 1
 421 143 l 1
EndSplineSet
EndChar

StartChar: p
Encoding: 80 112 37
Width: 602
VWidth: 0
Flags: HMW
LayerCount: 3
Fore
SplineSet
348 -12 m 3
 228.198660858 -12 150 76.889451101 150 188 c 1
 150 314 l 1
 150 425.152222938 227.421910604 515 350 515 c 3
 490.671875 515 580 400.303710938 580 251 c 3
 580 102.69140625 490.673828125 -12 348 -12 c 3
315 98 m 3
 403.26953125 98 450 166.893333333 450 251 c 3
 450 335.099337748 403.26953125 405 315 405 c 3
 226.73046875 405 180 335.099337748 180 251 c 3
 180 166.893333333 226.73046875 98 315 98 c 3
181 360 m 1
 181 301 l 1
 180 301 l 1
 180 201 l 1
 181 201 l 1
 181 -165 l 1
 52 -165 l 1
 52 503 l 1
 177 503 l 1
 178 360 l 1
 181 360 l 1
EndSplineSet
EndChar

StartChar: q
Encoding: 81 113 38
Width: 602
VWidth: 0
Flags: HMW
LayerCount: 3
Fore
SplineSet
254 515 m 3
 373.801757812 515 452 426.110351562 452 315 c 1
 452 189 l 1
 452 77.84765625 374.578125 -12 252 -12 c 3
 111.328125 -12 22 102.696289062 22 252 c 3
 22 400.30859375 111.326171875 515 254 515 c 3
287 405 m 3
 198.73046875 405 152 336.65977719 152 252 c 3
 152 167.350719975 198.73046875 98 287 98 c 3
 375.26953125 98 422 167.350719975 422 252 c 3
 422 336.65977719 375.26953125 405 287 405 c 3
421 360 m 1
 424 360 l 1
 425 503 l 1
 550 503 l 1
 550 -165 l 1
 421 -165 l 1
 421 201 l 1
 422 201 l 1
 422 301 l 1
 421 301 l 1
 421 360 l 1
EndSplineSet
EndChar

StartChar: t
Encoding: 84 116 39
Width: 349
VWidth: 0
Flags: HMW
AnchorPoint: "Bottom" 205 -44 basechar 0
AnchorPoint: "Caron" 379 688 basechar 0
AnchorPoint: "Cedilla" 204 0 basechar 0
LayerCount: 3
Fore
SplineSet
326 396 m 5
 -7 396 l 1
 -7 425 l 1
 184 617 l 1
 184 503 l 1
 326 503 l 5
 326 396 l 5
70 150 m 2
 70 425 l 1
 184 617 l 1
 199 617 l 1
 199 175 l 2
 199 121 220.38671875 107 267 107 c 3
 290.10546875 107 310.782226562 112.012695312 331 121 c 1
 331 12 l 1
 313.733398438 1.2001953125 275.4765625 -6 243 -6 c 3
 125.956054688 -6 70 38.423828125 70 150 c 2
EndSplineSet
EndChar

StartChar: e
Encoding: 69 101 40
Width: 534
VWidth: 0
Flags: HMW
AnchorPoint: "Ogonek" 361 0 basechar 0
AnchorPoint: "Top" 277 574 basechar 0
LayerCount: 3
Fore
SplineSet
92 298 m 1
 444 298 l 1
 444 204 l 1
 92 204 l 1
 92 298 l 1
484 23 m 1
 445.555664062 1.59459459459 376.619140625 -13 311 -13 c 3
 121 -13 22 92 22 252 c 3
 22 394 115.638671875 517 281 517 c 3
 427.094726562 517 511 403.545898438 511 267 c 3
 511 246 510 224 507 204 c 1
 380 204 l 1
 383 224 385 246 385 266 c 3
 385 354.813303413 349.610876013 408 276 408 c 3
 197.021625 408 150 350 150 249 c 7
 150 157 197.274853801 97 322 97 c 3
 372.423828125 97 439.903320312 114.354492188 484 140 c 1
 484 23 l 1
EndSplineSet
EndChar

StartChar: s
Encoding: 83 115 41
Width: 418
VWidth: 0
Flags: HMW
AnchorPoint: "Bottom" 225 -44 basechar 0
AnchorPoint: "Cedilla" 225 0 basechar 0
AnchorPoint: "Top" 224 574 basechar 0
LayerCount: 3
Fore
SplineSet
384 489 m 1
 355 378 l 1
 302.713867188 403.916621767 267 408 232 408 c 3
 181.61721254 408 155 394.325120192 155 368 c 3
 155 346.166992188 164.918755576 334.286466734 199 322 c 2
 292.708007812 288.217773438 l 2
 358 264.679669018 401 226.051203947 401 148 c 3
 401 43 321 -14 199 -14 c 3
 137.393554688 -14 75.03125 2.00015836149 38 24 c 1
 38 142 l 1
 91 106.878059088 147 93 202 93 c 3
 250.376811594 93 274 106.280473189 274 138 c 3
 274 157.769397102 264.93135976 171.481529115 225.041992188 185.536132812 c 2
 135.758789062 216.994140625 l 2
 70.9915547509 239.814201864 28 276 28 359 c 3
 28 451.411392405 108 516 247 516 c 3
 297 516 339 509 384 489 c 1
EndSplineSet
EndChar

StartChar: c
Encoding: 67 99 42
Width: 456
VWidth: 0
Flags: HMW
AnchorPoint: "Top" 274 574 basechar 0
AnchorPoint: "Cedilla" 282 0 basechar 0
LayerCount: 3
Fore
SplineSet
411 374 m 1
 381.39124732 387.73671875 351.872233072 398 308 398 c 3
 241.518554688 398 153 364.015503772 153 252 c 3
 153 141.454236482 234.5859375 99 314 99 c 3
 356.240234375 99 405.103515625 111.530691964 434 129 c 1
 434 14 l 1
 410.916015625 1.61783854167 364.749023438 -12 308 -12 c 3
 184.6640625 -12 22 48.142578125 22 248 c 3
 22 460.669418909 202 513 312 513 c 3
 377.116104126 513 421.343719482 498 441 489 c 1
 411 374 l 1
EndSplineSet
EndChar

StartChar: r
Encoding: 82 114 43
Width: 371
VWidth: 0
Flags: HMW
AnchorPoint: "Bottom" 122 -44 basechar 0
AnchorPoint: "Top" 210 574 basechar 0
LayerCount: 3
Fore
SplineSet
52 0 m 1
 52 503 l 1
 174 503 l 1
 175 360 l 1
 181 360 l 1
 181 0 l 1
 52 0 l 1
348 358 m 1
 325.371428571 369.2 302.098578559 374 282 374 c 3
 218.908128821 374 181 340.4100682 181 243 c 1
 161 344 l 1
 176.412296037 432.320512821 218.944444444 510 310 510 c 3
 334.3 510 361 498.714285714 373 489 c 1
 348 358 l 1
EndSplineSet
EndChar

StartChar: v
Encoding: 86 118 44
Width: 505
VWidth: 0
Flags: HMW
LayerCount: 3
Fore
SplineSet
334 0 m 1
 216 0 l 1
 365 503 l 1
 503 503 l 1
 334 0 l 1
169 0 m 1
 2 503 l 1
 145 503 l 1
 294 0 l 1
 169 0 l 1
EndSplineSet
EndChar

StartChar: m
Encoding: 77 109 45
Width: 813
VWidth: 0
Flags: HMW
LayerCount: 3
Fore
SplineSet
434 311 m 1
 434 431.755550987 505.024600343 511 609 511 c 3
 708.098632812 511 767 441.606291118 767 337 c 2
 767 0 l 1
 638 0 l 1
 638 306 l 6
 638 362.184334591 612.255859375 396 562 396 c 7
 505.326171875 396 474 361.297851562 474 288 c 5
 434 311 l 1
52 0 m 1
 52 503 l 1
 177 503 l 1
 178 360 l 1
 181 360 l 1
 181 0 l 1
 52 0 l 1
160 339 m 1
 160 445.869140625 224.479492188 511 316 511 c 3
 415.098632812 511 474 441.606291118 474 337 c 2
 474 0 l 1
 345 0 l 1
 345 306 l 6
 345 362.184334591 319.255859375 396 269 396 c 7
 212.326171875 396 181 361.297851562 181 288 c 5
 160 339 l 1
EndSplineSet
EndChar

StartChar: f
Encoding: 70 102 46
Width: 345
VWidth: 0
Flags: HMW
LayerCount: 3
Fore
SplineSet
22 503 m 1
 338 503 l 1
 338 396 l 1
 2 396 l 1
 22 503 l 1
81 541 m 2
 81 693 190 723 263 723 c 3
 291 723 314.419596355 718 329 712 c 1
 350 601 l 1
 333.43909842 606.5 311.356483477 612 286 612 c 3
 245.888888889 612 210 594.787878788 210 541 c 2
 210 0 l 1
 81 0 l 1
 81 541 l 2
EndSplineSet
EndChar

StartChar: g
Encoding: 71 103 47
Width: 595
VWidth: 0
Flags: HMW
AnchorPoint: "Top" 290 578 basechar 0
LayerCount: 3
Fore
SplineSet
414 359 m 1
 417 359 l 1
 418 503 l 1
 543 503 l 1
 543 65 l 2
 543 -80 442.442742047 -176 261 -176 c 3
 196 -176 120.605351154 -161.081321022 77 -133 c 1
 77 -15 l 1
 128.890052356 -49.5017045454 201.555255031 -67 259 -67 c 3
 346.987505174 -67 414 -23 414 56 c 2
 414 214 l 1
 415 214 l 1
 415 316 l 1
 414 316 l 1
 414 359 l 1
254 17 m 3
 110.209837841 17 22 125.150390625 22 265 c 3
 22 405.8203125 110.209837841 514 254 514 c 3
 371.05522048 514 445 424.598486075 445 314 c 1
 445 217 l 1
 445 105.889451101 370.29108534 17 254 17 c 3
284 128 m 3
 369.652802438 128 415 189.194126157 415 265 c 3
 415 340.854219324 369.652802438 403 284 403 c 3
 197.039579933 403 151 340.854219324 151 265 c 3
 151 189.194126157 197.039579933 128 284 128 c 3
EndSplineSet
EndChar

StartChar: j
Encoding: 74 106 48
Width: 233
VWidth: 0
Flags: HMW
LayerCount: 3
Fore
SplineSet
50 576 m 5
 50 702 l 5
 183 702 l 5
 183 576 l 5
 50 576 l 5
52 16 m 2
 52 503 l 1
 181 503 l 1
 181 20 l 2
 181 -117 116.638554217 -170 15 -170 c 3
 -8.6 -170 -36.2 -163.333333333 -50 -154 c 1
 -50 -50 l 1
 -35.7 -54.6666666667 -21.4 -57 -6 -57 c 3
 31.4193548387 -57 52 -31.3513513514 52 16 c 2
EndSplineSet
EndChar

StartChar: k
Encoding: 75 107 49
Width: 515
VWidth: 0
Flags: HMW
AnchorPoint: "Bottom" 274 -44 basechar 0
LayerCount: 3
Fore
SplineSet
165 261 m 1
 289 304 l 1
 522 0 l 1
 361 0 l 1
 165 261 l 1
160 261 m 1
 365 503 l 5
 520 503 l 5
 288 231 l 1
 160 261 l 1
52 0 m 1
 52 718 l 1
 181 718 l 1
 181 0 l 1
 52 0 l 1
EndSplineSet
EndChar

StartChar: w
Encoding: 87 119 50
Width: 746
VWidth: 0
Flags: HMW
LayerCount: 3
Fore
SplineSet
611 0 m 1
 502 0 l 1
 608 503 l 1
 738 503 l 1
 611 0 l 1
472 0 m 1
 324 503 l 1
 435 503 l 1
 580 0 l 1
 472 0 l 1
272 0 m 1
 171 0 l 1
 316 503 l 1
 422 503 l 5
 272 0 l 1
133 0 m 1
 8 503 l 1
 141 503 l 1
 249 0 l 1
 133 0 l 1
EndSplineSet
EndChar

StartChar: x
Encoding: 88 120 51
Width: 502
VWidth: 0
Flags: HMW
LayerCount: 3
Fore
SplineSet
136 0 m 1
 -7 0 l 1
 167.318359375 261.1875 l 1
 8 503 l 1
 157 503 l 1
 256.659179688 342.084960938 l 1
 355 503 l 1
 498 503 l 1
 337.3515625 260.881835938 l 1
 509 0 l 1
 360 0 l 1
 247.224609375 179.979492188 l 1
 136 0 l 1
EndSplineSet
EndChar

StartChar: y
Encoding: 89 121 52
Width: 490
VWidth: 0
Flags: HMW
AnchorPoint: "Top" 248 574 basechar 0
LayerCount: 3
Fore
SplineSet
320 7 m 2
 281.251707709 -108.084748362 231 -168 127 -168 c 3
 85 -168 50 -158.5 32 -149 c 1
 32 -37 l 1
 55 -46.2 87 -53 111 -53 c 3
 160 -53 183.968270215 -19.9959058342 189 19 c 2
 193 50 l 1
 221 50 l 1
 355 503 l 1
 487 503 l 1
 320 7 l 2
3 503 m 1
 145 503 l 1
 286 50 l 1
 199 -49 l 1
 3 503 l 1
EndSplineSet
EndChar

StartChar: z
Encoding: 90 122 53
Width: 442
VWidth: 0
Flags: HMW
AnchorPoint: "Top" 236 574 basechar 0
LayerCount: 3
Fore
SplineSet
12 13 m 1
 92 110 l 1
 449 110 l 1
 415 0 l 1
 12 0 l 1
 12 13 l 1
433 490 m 1
 352 393 l 1
 12 393 l 1
 46 503 l 1
 433 503 l 1
 433 490 l 1
12 13 m 1
 285 479 l 1
 433 490 l 1
 160 26 l 1
 12 13 l 1
EndSplineSet
EndChar

StartChar: period
Encoding: 14 46 54
Width: 221
VWidth: 0
Flags: HMW
LayerCount: 3
Fore
SplineSet
38 0 m 1
 38 152 l 1
 183 152 l 5
 183 0 l 5
 38 0 l 1
EndSplineSet
Validated: 1
EndChar

StartChar: comma
Encoding: 12 44 55
Width: 231
VWidth: 0
Flags: HMW
LayerCount: 3
Fore
SplineSet
54 -72 m 3
 89.0907111568 -72 104 -55.0276358762 104 -16 c 2
 104 13 l 1
 43 33 l 1
 43 152 l 1
 193 152 l 1
 193 -14 l 2
 193 -99.638671875 146.052734375 -148 75 -148 c 3
 59.34765625 -148 37.6025390625 -145 21 -136 c 1
 21 -67 l 1
 31.2414362981 -70.3333333333 43.7585637019 -72 54 -72 c 3
EndSplineSet
EndChar

StartChar: two
Encoding: 18 50 56
Width: 546
VWidth: 0
Flags: HMW
LayerCount: 3
Fore
SplineSet
39 0 m 1
 139 120 l 1
 527 120 l 1
 496 0 l 1
 39 0 l 1
49 516 m 1
 83 647 l 1
 123.659860642 674.621400123 181.639695946 697 265 697 c 3
 394.477466248 697 492 635.98828125 492 511 c 3
 492 437.189980879 462.635544114 378.610569732 365.55078125 290.958007812 c 2
 266 203 l 2
 226.715044876 168.289811428 199 137 199 85 c 1
 39 0 l 1
 39 29 l 2
 39 114 81.9999999998 195.201116928 194.064453125 298.57421875 c 2
 278 376 l 2
 344.711965291 439.86201497 357 459.63174716 357 500 c 3
 357 551.59765625 312.401785714 576 246 576 c 3
 166.830625 576 109.477460937 553.000463453 49 516 c 1
EndSplineSet
Substitution2: "'pnum' Proportional Numbers lookup 2-1" two.pnum
EndChar

StartChar: one
Encoding: 17 49 57
Width: 546
VWidth: 0
Flags: HMW
LayerCount: 3
Fore
SplineSet
391 694 m 1
 391 573 l 1
 72 507 l 1
 105 636 l 1
 391 694 l 1
257 0 m 1
 257 654 l 1
 391 694 l 1
 391 0 l 1
 257 0 l 1
EndSplineSet
Substitution2: "'pnum' Proportional Numbers lookup 2-1" one.pnum
EndChar

StartChar: three
Encoding: 19 51 58
Width: 546
VWidth: 0
Flags: HMW
LayerCount: 3
Fore
SplineSet
508 198 m 3
 508 73.3570161534 405.373046875 -8 255 -8 c 3
 166.299804688 -8 95.009765625 13.83984375 49 44 c 1
 49 173 l 1
 115 135 166.838867188 112 252 112 c 3
 314.544921875 112 369 139.845703125 369 203 c 3
 369 278.186523438 277.432617188 301.01953125 155 302 c 1
 183 408 l 1
 274 380 l 1
 377.208984375 380 508 328.36065754 508 198 c 3
351 498 m 3
 351 553.375 297.977479619 579 235 579 c 7
 167.79296875 579 106.284710428 557.916992188 50 524 c 1
 84 653 l 1
 125.555925546 677.307617188 181.099931245 697 268 697 c 7
 392.389018111 697 489 635.98828125 489 524 c 3
 489 406.666344803 382.745117188 348 326 348 c 1
 183 408 l 1
 277.212890625 410.022460938 351 427 351 498 c 3
EndSplineSet
Substitution2: "'pnum' Proportional Numbers lookup 2-1" three.pnum
EndChar

StartChar: zero
Encoding: 16 48 59
Width: 546
VWidth: 0
Flags: HMW
LayerCount: 3
Fore
SplineSet
272 700 m 3
 436.872070312 700 524 580.854492188 524 346 c 3
 524 108.91796875 436.872070312 -12 272 -12 c 3
 108.436523438 -12 22 108.91796875 22 346 c 3
 22 580.854492188 108.436523438 700 272 700 c 3
272 579 m 3
 195.930664062 579 156 510.575195312 156 346 c 3
 156 179.342773438 195.930664062 109 272 109 c 3
 349.380859375 109 390 179.342773438 390 346 c 3
 390 510.575195312 349.380859375 579 272 579 c 3
EndSplineSet
Validated: 1
Substitution2: "'pnum' Proportional Numbers lookup 2-1" zero.pnum
EndChar

StartChar: four
Encoding: 20 52 60
Width: 546
VWidth: 0
Flags: HMW
LayerCount: 3
Fore
SplineSet
8 260 m 1
 75 262 l 1
 534 262 l 5
 534 154 l 5
 8 154 l 1
 8 260 l 1
325 0 m 1
 325 425 l 1
 459 462 l 1
 459 0 l 1
 325 0 l 1
8 260 m 1
 269 688 l 1
 417 688 l 1
 155 260 l 1
 8 260 l 1
EndSplineSet
Substitution2: "'pnum' Proportional Numbers lookup 2-1" four.pnum
EndChar

StartChar: five
Encoding: 21 53 61
Width: 546
VWidth: 0
Flags: HMW
LayerCount: 3
Fore
SplineSet
59 301 m 1
 107 688 l 1
 227 688 l 1
 186 371 l 1
 59 301 l 1
106 565 m 1
 107 688 l 1
 490 688 l 1
 457 565 l 1
 106 565 l 1
513 227 m 3
 513 82.8408203125 405.916015625 -8 244 -8 c 3
 161.041992188 -8 89.4462890625 13.419921875 45 43 c 1
 45 172 l 1
 105.795898438 135 165.073242188 112 247 112 c 3
 317.461914062 112 378 143.82421875 378 218 c 3
 378 300.291015625 307 327 223 327 c 3
 170.020507812 327 103.376953125 316 59 301 c 1
 106 399 l 1
 149.995117188 423 208.768554688 440 277 440 c 3
 407.481445312 440 513 364.942382812 513 227 c 3
EndSplineSet
Substitution2: "'pnum' Proportional Numbers lookup 2-1" five.pnum
EndChar

StartChar: six
Encoding: 22 54 62
Width: 546
VWidth: 0
Flags: HMW
LayerCount: 3
Fore
SplineSet
26 330 m 1
 26 96 135.783203125 -12 299 -12 c 3
 439.221679688 -12 537 84 537 226 c 3
 537 354.012695312 435.150390625 444 319 444 c 3
 216.059570312 444 146 388.811523438 146 309 c 1
 175 216 l 1
 175 277.142578125 223.849609375 323 290 323 c 3
 356.150390625 323 405 277.142578125 405 216 c 3
 405 153.859375 356.150390625 107 290 107 c 3
 223.849609375 107 175 153.859375 175 216 c 1
 153 339 l 1
 153 464.713867188 198.024414062 579 334 579 c 3
 390 579 438.776367188 558.090820312 469 533 c 1
 500 653 l 1
 462.4140625 679.211914062 408 700 340 700 c 3
 111.487304688 700 26 528 26 330 c 1
EndSplineSet
Validated: 5
Substitution2: "'pnum' Proportional Numbers lookup 2-1" six.pnum
EndChar

StartChar: seven
Encoding: 23 55 63
Width: 546
VWidth: 0
Flags: HMW
LayerCount: 3
Fore
SplineSet
536 688 m 1
 536 664 l 1
 456 565 l 1
 11 565 l 1
 44 688 l 1
 536 688 l 1
86 0 m 1
 113 155 308 512 413 664 c 1
 536 664 l 1
 443.609375 508 262.298828125 155 233 0 c 1
 86 0 l 1
EndSplineSet
Validated: 5
Substitution2: "'pnum' Proportional Numbers lookup 2-1" seven.pnum
EndChar

StartChar: eight
Encoding: 24 56 64
Width: 546
VWidth: 0
Flags: HMW
LayerCount: 3
Fore
SplineSet
273 371 m 3
 439.7890625 371 526 303.491210938 526 186 c 3
 526 76.3111042061 433.764648438 -13 273 -13 c 3
 112.235351562 -13 20 76.3111042061 20 186 c 3
 20 303.491210938 106.2109375 371 273 371 c 3
273 299 m 3
 196.476782227 299 156 253.927774645 156 201 c 3
 156 147.34885204 196.476782227 101 273 101 c 3
 350.171719619 101 390 147.81211914 390 202 c 3
 390 254.387695312 350.171719619 299 273 299 c 3
273 701 m 7
 421.056640625 701 506 612.932236843 506 509 c 3
 506 408.201171875 431.142578125 336 273 336 c 3
 114.857421875 336 40 408.201171875 40 509 c 3
 40 612.932236843 124.943359375 701 273 701 c 7
273 589 m 7
 210.229994972 589 174 546.687631671 174 497 c 3
 174 448.177354601 210.229994972 406 273 406 c 3
 335.770005028 406 372 448.177354601 372 497 c 3
 372 546.687631671 335.770005028 589 273 589 c 7
EndSplineSet
Substitution2: "'pnum' Proportional Numbers lookup 2-1" eight.pnum
EndChar

StartChar: nine
Encoding: 25 57 65
Width: 546
VWidth: 0
Flags: HMW
LayerCount: 3
Fore
SplineSet
520 353 m 1
 520 592 410.216796875 700 249 700 c 3
 106.778320312 700 9 601.209960938 9 460 c 3
 9 330.225585938 110.849609375 239 230 239 c 3
 329.940429688 239 400 295.82421875 400 378 c 1
 371 470 l 1
 371 407.713867188 322.150390625 361 256 361 c 3
 189.849609375 361 141 407.713867188 141 470 c 3
 141 533.280273438 189.849609375 581 256 581 c 3
 322.150390625 581 371 533.280273438 371 470 c 1
 394 350 l 1
 394 229.244576446 360.024414062 110 217 110 c 7
 151.419921875 110 98.0361328125 131.830147879 51 164 c 5
 51 35 l 5
 83.25390625 11.9229789402 148.26171875 -10 223 -10 c 7
 449.043945312 -10 520 166.030136986 520 353 c 1
EndSplineSet
Substitution2: "'pnum' Proportional Numbers lookup 2-1" nine.pnum
EndChar

StartChar: quotesingle
Encoding: 7 39 67
Width: 210
VWidth: 0
Flags: HMW
LayerCount: 3
Fore
SplineSet
67 389 m 5
 41 595 l 1
 41 688 l 1
 169 688 l 1
 169 595 l 1
 143 389 l 1
 67 389 l 5
EndSplineSet
Validated: 1
EndChar

StartChar: f_f
Encoding: 332 64256 70
Width: 660
VWidth: 0
Flags: HMW
LayerCount: 3
Fore
SplineSet
246 503 m 1
 378 503 l 1
 378 396 l 1
 246 396 l 1
 246 503 l 1
EndSplineSet
Refer: 46 102 N 1 0 0 1 321 0 2
Refer: 46 102 N 1 0 0 1 -2 0 2
LCarets2: 1 0
Ligature2: "'liga' Standard Ligatures in Latin lookup 0-1" f f
EndChar

StartChar: parenleft
Encoding: 8 40 71
Width: 294
VWidth: 0
Flags: HMW
LayerCount: 3
Fore
SplineSet
148 300 m 3
 148 120.9453125 235.513671875 -55.44921875 323 -125 c 1
 192 -125 l 1
 114.901367188 -57.60546875 29 96.76953125 29 299 c 3
 29 500.814453125 113.756835938 650.700195312 192 718 c 1
 323 718 l 1
 233.813476562 646.51953125 148 479.469726562 148 300 c 3
EndSplineSet
EndChar

StartChar: dollar
Encoding: 4 36 73
Width: 501
VWidth: 0
Flags: HMW
LayerCount: 3
Fore
SplineSet
199 -114 m 5
 199 58 l 1
 321 58 l 1
 321 -114 l 5
 199 -114 l 5
199 630 m 1
 199 792 l 1
 321 792 l 1
 321 630 l 1
 199 630 l 1
EndSplineSet
Refer: 24 83 N 1 0 0 1 -2 0 2
EndChar

StartChar: bracketleft
Encoding: 59 91 76
Width: 331
VWidth: 0
Flags: HMW
LayerCount: 3
Fore
SplineSet
130 718 m 1
 331 718 l 1
 305 619 l 1
 130 619 l 1
 130 718 l 1
130 -26 m 1
 305 -26 l 1
 331 -125 l 1
 130 -125 l 1
 130 -26 l 1
174 -125 m 1
 58 -125 l 1
 58 718 l 1
 174 718 l 1
 174 -125 l 1
EndSplineSet
EndChar

StartChar: exclam
Encoding: 1 33 78
Width: 251
VWidth: 0
Flags: HMW
LayerCount: 3
Fore
SplineSet
82 226 m 5
 58 511 l 1
 58 688 l 1
 194 688 l 1
 194 511 l 1
 170 226 l 1
 82 226 l 5
EndSplineSet
Refer: 54 46 N 1 0 0 1 15 0 2
EndChar

StartChar: question
Encoding: 31 63 79
Width: 460
VWidth: 0
Flags: HMW
LayerCount: 3
Fore
SplineSet
157 235 m 1
 157 314.435546875 192.864257812 349.677734375 248 401 c 0
 275.482421875 426.58203125 305 455 305 501 c 3
 305 555 261 576 200 576 c 3
 123.111328125 576 70.166015625 554 13 518 c 1
 47 649 l 1
 91 677 138.756835938 697 222 697 c 3
 343 697 440 636 440 522 c 3
 440 447.801757812 406.053639864 405.234452356 350.21875 353.93359375 c 0
 298 305.955229024 268.907407407 279 264 226 c 1
 157 226 l 1
 157 226 157 230.5 157 235 c 1
EndSplineSet
Refer: 54 46 N 1 0 0 1 104 0 2
EndChar

StartChar: ampersand
Encoding: 6 38 80
Width: 589
VWidth: 0
Flags: HMW
LayerCount: 3
Fore
SplineSet
213 406 m 1
 234 315 l 1
 177.272727273 304.839931729 156 265.280176661 156 214 c 3
 156 149 205.939453125 97 278 97 c 3
 379.458984375 97 433 205 445 382 c 1
 555 347 l 5
 541.827148438 153 426.9765625 -10 246 -10 c 7
 133 -10 29 70 29 196 c 3
 29 314 112 382.338028169 213 406 c 1
440 0 m 1
 155 367 l 2
 116.967704734 415.97492057 93 459.4765625 93 515 c 3
 93 642.33984375 208.466796875 698 310 698 c 3
 369 698 426.129882812 683.447265625 462 660 c 1
 432 541 l 1
 398.192382812 562.24609375 357.633789062 581.891601562 305 581.891601562 c 3
 273 581.891601562 223 569 223 516 c 3
 223 495.143096514 228.871563128 476.903820315 261 434 c 2
 586 0 l 1
 440 0 l 1
EndSplineSet
EndChar

StartChar: asterisk
Encoding: 10 42 81
Width: 473
VWidth: 0
Flags: HMW
LayerCount: 3
Fore
SplineSet
185 688 m 1
 288 688 l 1
 274 459 l 1
 199 459 l 1
 185 688 l 1
146.703125 258.443359375 m 1
 65.6103515625 316.633789062 l 1
 209.409179688 491.037109375 l 1
 269.231445312 450.48046875 l 1
 146.703125 258.443359375 l 1
407.389648438 316.633789062 m 1
 326.296875 258.443359375 l 1
 203.768554688 450.48046875 l 1
 263.590820312 491.037109375 l 1
 407.389648438 316.633789062 l 1
428.05859375 579.788085938 m 1
 458.651367188 485.633789062 l 1
 240.979492188 431.6796875 l 1
 219.657226562 495.302734375 l 1
 428.05859375 579.788085938 l 1
14.3486328125 485.633789062 m 1
 44.94140625 579.788085938 l 1
 253.342773438 495.302734375 l 1
 232.020507812 431.6796875 l 1
 14.3486328125 485.633789062 l 1
EndSplineSet
EndChar

StartChar: slash
Encoding: 15 47 82
Width: 465
VWidth: 0
Flags: HMW
LayerCount: 3
Fore
SplineSet
3 -125 m 1
 342 718 l 1
 462 718 l 1
 123 -125 l 1
 3 -125 l 1
EndSplineSet
Validated: 1
EndChar

StartChar: backslash
Encoding: 60 92 83
Width: 465
VWidth: 0
Flags: HMW
LayerCount: 3
Fore
SplineSet
462 -125 m 1
 342 -125 l 1
 3 718 l 1
 123 718 l 5
 462 -125 l 1
EndSplineSet
Validated: 1
EndChar

StartChar: underscore
Encoding: 63 95 84
Width: 516
VWidth: 0
Flags: HMW
LayerCount: 3
Fore
SplineSet
514 0 m 5
 514 -112 l 5
 -6 -112 l 1
 23 0 l 1
 514 0 l 5
EndSplineSet
Validated: 1
EndChar

StartChar: plus
Encoding: 11 43 85
Width: 491
VWidth: 0
Flags: HMW
LayerCount: 3
Fore
SplineSet
194 81 m 1
 194 534 l 1
 301 534 l 1
 301 81 l 1
 194 81 l 1
41 362 m 1
 467 362 l 1
 467 265 l 1
 16 265 l 1
 41 362 l 1
EndSplineSet
Validated: 5
EndChar

StartChar: braceleft
Encoding: 91 123 86
Width: 310
VWidth: 0
Flags: HMW
LayerCount: 3
Fore
SplineSet
149 297 m 5
 18 297 l 1
 18 339 l 1
 75.78125 341.505859375 126 361.701171875 126 415 c 3
 126 432 119.9375 450.421875 103.80859375 469.642578125 c 0
 85.046875 492 66 518.506835938 66 567 c 3
 66 673.869140625 196.459960938 724 280 724 c 1
 295 631 l 1
 228.426757812 623.8671875 184 608.751953125 184 573 c 3
 184 550.893554688 192.569335938 539.305664062 209.889648438 518 c 0
 228.022460938 495.694335938 250 464 250 425 c 3
 250 357 203.540039062 316.248046875 149 297 c 5
149 297 m 5
 203.540039062 277.751953125 250 237 250 169 c 3
 250 129 228.064453125 99.1083984375 209.889648438 76 c 0
 192.911132812 54.4140625 184 42.1064453125 184 21 c 3
 184 -14.751953125 228.426757812 -29.8671875 295 -37 c 1
 280 -130 l 1
 196.459960938 -130 66 -79.869140625 66 27 c 3
 66 75.4931640625 85.361328125 101.739257812 103.80859375 124.357421875 c 0
 119.829101562 144 126 162 126 179 c 3
 126 232.298828125 75.78125 252.494140625 18 255 c 1
 18 297 l 1
 149 297 l 5
EndSplineSet
Validated: 5
EndChar

StartChar: bar
Encoding: 92 124 87
Width: 231
VWidth: 0
Flags: HMW
LayerCount: 3
Fore
SplineSet
58 -125 m 1
 58 718 l 1
 173 718 l 1
 173 -125 l 1
 58 -125 l 1
EndSplineSet
Validated: 1
EndChar

StartChar: numbersign
Encoding: 3 35 89
Width: 689
VWidth: 0
Flags: HMW
LayerCount: 3
Fore
SplineSet
611 287 m 1
 611 187 l 1
 13 187 l 1
 39 287 l 1
 611 287 l 1
671 516 m 1
 671 416 l 1
 73 416 l 1
 99 516 l 1
 671 516 l 1
321 0 m 1
 501 688 l 1
 617 688 l 1
 437 0 l 1
 321 0 l 1
81 0 m 1
 261 688 l 1
 377 688 l 1
 197 0 l 1
 81 0 l 1
EndSplineSet
EndChar

StartChar: equal
Encoding: 29 61 91
Width: 504
VWidth: 0
Flags: HMW
LayerCount: 3
Fore
SplineSet
57 259 m 5
 465 259 l 5
 465 157 l 1
 31 157 l 1
 57 259 l 5
57 455 m 1
 465 455 l 1
 465 353 l 1
 31 353 l 1
 57 455 l 1
EndSplineSet
Validated: 1
EndChar

StartChar: at
Encoding: 32 64 92
Width: 973
VWidth: 0
Flags: HMW
LayerCount: 3
Fore
SplineSet
472 144 m 3
 544 144 582 202.346456693 582 274 c 3
 582 345.640625 544 405 472 405 c 3
 400 405 362 345.640625 362 274 c 3
 362 202.346456693 400 144 472 144 c 3
447 37 m 3
 315 37 232 140.6875 232 274 c 3
 232 407.742327009 315 511 447 511 c 3
 542.5546875 511 601 439.705078125 601 351 c 1
 616 219 l 1
 616 118.098632812 550.84375 37 447 37 c 3
746 38 m 3
 633.354492188 38 591 118.942382812 591 191 c 1
 581 191 l 1
 581 248 l 1
 582 248 l 1
 582 302 l 1
 581 302 l 1
 581 358 l 1
 584 358 l 1
 585 501 l 1
 709 501 l 1
 709 197 l 2
 709 157 719.208333333 133 758 133 c 3
 816.326740506 133 838 227.410551265 838 309 c 3
 838 478.597525248 706.818644087 638 492 638 c 3
 259.822106968 638 136 457.819278971 136 279 c 3
 136 84.9621784357 263.706321434 -85 525 -85 c 3
 593.460848568 -85 680.502304148 -64.1032976307 747 -29 c 1
 747 -131 l 1
 692.462558179 -160 600.78792387 -181 513 -181 c 3
 195.817342291 -181 28 30.2436146178 28 273 c 3
 28 516.94785493 190.523697507 735 503 735 c 3
 775.782159978 735 945 532.947265625 945 309 c 0
 945 144.560257126 867.327148438 38 746 38 c 3
EndSplineSet
EndChar

StartChar: AE
Encoding: 133 198 99
Width: 903
VWidth: 0
Flags: HMW
AnchorPoint: "Ogonek" 385 0 basechar 0
AnchorPoint: "Top" 296 744 basechar 0
LayerCount: 3
Fore
SplineSet
490 413.916992188 m 5
 810 413.916992188 l 5
 778 293 l 1
 488 292.916992188 l 1
 490 413.916992188 l 5
490 122 m 1
 868 122 l 1
 901 0 l 1
 490 0 l 1
 490 122 l 1
490 688 m 1
 880 688 l 1
 848 566 l 1
 490 566 l 1
 490 688 l 1
425 0 m 1
 425 688 l 1
 559 688 l 1
 559 0 l 1
 425 0 l 1
-7 0 m 1
 339 688 l 1
 474 688 l 1
 134 0 l 1
 -7 0 l 1
160 268 m 1
 462 268 l 1
 462 154 l 1
 160 154 l 1
 160 268 l 1
EndSplineSet
EndChar

StartChar: Oslash
Encoding: 151 216 115
Width: 784
VWidth: 0
Flags: HMW
LayerCount: 3
Back
Refer: 13 79 N 1 0 0 1 -2 0 2
Fore
SplineSet
37 18 m 1
 181.409179688 182 l 1
 173.409179688 181 l 1
 520.225585938 576 l 1
 528.225585938 577 l 1
 667 734 l 1
 744 670 l 5
 611.37109375 520 l 5
 619.37109375 521 l 1
 257.62890625 107 l 1
 249.62890625 106 l 1
 114 -46 l 1
 37 18 l 1
EndSplineSet
Refer: 13 79 N 1 0 0 1 -2 0 2
EndChar

StartChar: OE
Encoding: 243 338 116
Width: 1116
VWidth: 0
Flags: HMW
LayerCount: 3
Fore
SplineSet
386 705 m 3
 610.834960938 705 727 538.086914062 727 346 c 3
 727 151.690429688 610.834960938 -17 386 -17 c 3
 151.944335938 -17 18 151.690429688 18 346 c 3
 18 538.086914062 151.944335938 705 386 705 c 3
392 584 m 3
 235.845703125 584 154 468.033203125 154 344 c 3
 154 219.966796875 235.926757812 104 392 104 c 3
 546.073242188 104 630 219.966796875 630 344 c 3
 630 468.033203125 545.985351562 584 392 584 c 3
691 413.916992188 m 5
 1022 413.916992188 l 5
 990 293 l 1
 689 292.916992188 l 1
 691 413.916992188 l 5
691 122 m 1
 1080 122 l 1
 1113 0 l 1
 691 0 l 1
 691 122 l 1
691 688 m 1
 1092 688 l 1
 1060 566 l 1
 691 566 l 1
 691 688 l 1
630 0 m 1
 630 688 l 1
 761 688 l 1
 761 0 l 1
 630 0 l 1
EndSplineSet
EndChar

StartChar: ae
Encoding: 165 230 129
Width: 812
VWidth: 0
Flags: HMW
LayerCount: 3
Fore
SplineSet
383 297 m 1
 722 297 l 1
 722 204 l 1
 383 204 l 1
 383 297 l 1
762 24 m 1
 725.333007812 2 659.584960938 -13 597 -13 c 3
 411.602539062 -13 315 92 315 252 c 3
 315 384 406.107421875 517 567 517 c 3
 708.012695312 517 789 404.454101562 789 269 c 3
 789 247.333007812 788 224.634765625 785 204 c 1
 659 204 l 1
 662 224.645507812 664 247.354492188 664 268 c 3
 664 352 630.947486733 407 556 407 c 3
 481.484375 407 440 350.643554688 440 249 c 3
 440 154.625 490.249023438 98 601 98 c 3
 659.252929688 98 720.451171875 115.354492188 762 141 c 1
 762 24 l 1
315 319 m 1
 315 373.65060241 276.688073394 403 199 403 c 3
 137.025316456 403 85.7025316456 387.195121952 46 367 c 1
 76 486 l 1
 116.453333333 502.774193549 164.8 512 224 512 c 3
 355.169468306 512 425 428.891891892 425 307 c 5
 315 319 l 1
425 307 m 5
 425 143 l 5
 315 143 l 1
 315 319 l 1
 425 307 l 5
151 157 m 3
 151 121.271186441 172 95 222 95 c 3
 277 95 315 130 315 195 c 1
 386 134 l 1
 386 48.4355578476 305.662026066 -8 200 -8 c 3
 80 -8 22 57.4391891892 22 141 c 3
 22 280.842424242 146.972019624 298.269186881 248 307 c 2
 329 314 l 1
 329 227 l 1
 234 218 l 2
 182.994277909 213.16787896 151 196.65 151 157 c 3
EndSplineSet
EndChar

StartChar: dotlessi
Encoding: 222 305 135
Width: 233
VWidth: 0
Flags: HMW
AnchorPoint: "Top" 117 574 basechar 0
LayerCount: 3
Fore
SplineSet
52 0 m 1
 52 503 l 1
 181 503 l 1
 181 0 l 1
 52 0 l 1
EndSplineSet
Validated: 1
EndChar

StartChar: oslash
Encoding: 183 248 146
Width: 584
VWidth: 0
Flags: HMW
LayerCount: 3
Fore
SplineSet
22 14 m 1
 146.455078125 155 l 1
 143.455078125 155 l 1
 365.305664062 407 l 1
 368.305664062 407 l 1
 491 546 l 1
 562 489 l 1
 449.870117188 362 l 1
 452.870117188 362 l 1
 209.010742188 85 l 1
 206.010742188 85 l 1
 93 -43 l 1
 22 14 l 1
EndSplineSet
Refer: 27 111 N 1 0 0 1 -2 0 2
EndChar

StartChar: dieresis
Encoding: 103 168 154
Width: 430
VWidth: 0
Flags: HMW
AnchorPoint: "Top" 215 562 mark 0
LayerCount: 3
Fore
SplineSet
250 562 m 5
 250 688 l 5
 382 688 l 5
 382 562 l 5
 250 562 l 5
48 562 m 1
 48 688 l 1
 180 688 l 1
 180 562 l 1
 48 562 l 1
EndSplineSet
Validated: 1
EndChar

StartChar: germandbls
Encoding: 158 223 155
Width: 566
VWidth: 0
Flags: HMW
LayerCount: 3
Fore
SplineSet
52 514 m 2
 52 687 178.309570312 725 269 725 c 3
 360.369140625 725 462 678.791946309 462 572 c 3
 462 509.701171875 438.542973668 487.034312703 403.181640625 456 c 0
 376.429089303 432.521047939 366 421.967357197 366 399 c 3
 366 379 377.970703125 362.938476562 401 352 c 2
 441 333 l 6
 531.525390625 290.000976562 560 243.170898438 560 167 c 3
 560 66.2255859375 490.201171875 -8 358 -8 c 3
 320 -8 270 2 237 20 c 1
 237 134 l 1
 273.840820312 110.666992188 326.043945312 99 361 99 c 3
 408 99 434 124.89453125 434 157 c 3
 434 184.458007812 421.852539062 205.689453125 375 228 c 2
 333 248 l 2
 270.778320312 277.629882812 240 312.45703125 240 375 c 3
 240 429 263.752929688 457.778320312 293 483.958984375 c 0
 321.040039062 509.05859375 336 523.336914062 336 552 c 3
 336 595 301.546875 612 263 612 c 3
 224 612 181 592 181 519 c 2
 181 0 l 1
 52 0 l 1
 52 514 l 2
EndSplineSet
EndChar

StartChar: grave
Encoding: 64 96 156
Width: 236
VWidth: 0
Flags: HMW
AnchorPoint: "Top" 159 522 mark 0
LayerCount: 3
Fore
SplineSet
128 522 m 1
 8 688 l 1
 150 688 l 1
 233 522 l 25
 128 522 l 1
EndSplineSet
EndChar

StartChar: acute
Encoding: 115 180 157
Width: 236
VWidth: 0
Flags: HMW
AnchorPoint: "Top" 77 522 mark 0
LayerCount: 3
Fore
SplineSet
106 522 m 5
 0 522 l 29
 82 688 l 5
 225 688 l 5
 106 522 l 5
EndSplineSet
EndChar

StartChar: ring
Encoding: 286 730 158
Width: 252
VWidth: 0
Flags: HMW
AnchorPoint: "Top" 126 519 mark 0
LayerCount: 3
Fore
SplineSet
79.5 598 m 7
 79.5 572.424781156 94.7857572115 551.5 126 551.5 c 3
 157.214242788 551.5 172.5 572.424781156 172.5 598 c 3
 172.5 623.575218844 157.214242788 644.5 126 644.5 c 3
 94.7857572115 644.5 79.5 623.575218844 79.5 598 c 7
16 598 m 7
 16 653.55 53.7916124131 699 126 699 c 3
 198.208387586 699 236 653.55 236 598 c 3
 236 542.45 198.208387586 497 126 497 c 3
 53.7916124131 497 16 542.45 16 598 c 7
EndSplineSet
EndChar

StartChar: cedilla
Encoding: 119 184 159
Width: 236
VWidth: 0
Flags: HMW
AnchorPoint: "Cedilla" 136 0 mark 0
LayerCount: 3
Fore
SplineSet
139 22 m 1
 181 -5 211 -39 211 -84 c 3
 211 -134 174 -175 97 -175 c 3
 63 -175 28 -166 10 -153 c 1
 10 -67 l 1
 27 -77 56 -85 76 -85 c 3
 100 -85 111 -74 111 -54 c 3
 111 -36 104 -9 85 22 c 1
 139 22 l 1
EndSplineSet
EndChar

StartChar: circumflex
Encoding: 281 710 160
Width: 346
VWidth: 0
Flags: HMW
AnchorPoint: "Top" 173 522 mark 0
LayerCount: 3
Fore
SplineSet
241 522 m 1
 118 688 l 1
 245 688 l 1
 343 522 l 1
 241 522 l 1
105 522 m 1
 3 522 l 1
 101 688 l 1
 228 688 l 1
 105 522 l 1
EndSplineSet
Validated: 5
EndChar

StartChar: tilde
Encoding: 288 732 162
Width: 385
VWidth: 0
Flags: HMW
AnchorPoint: "Top" 192 545 mark 0
LayerCount: 3
Fore
SplineSet
12 560 m 1
 12 642.282226562 56 693 129 693 c 3
 166.589266314 693 190.351334849 675.370628286 214.26953125 657.21875 c 0
 234.555664062 641.204101562 246 634 265 634 c 3
 285.111713611 634 299.779733758 651.19059806 302 691 c 1
 373 678 l 1
 373 595.717773438 326.4453125 545 257 545 c 3
 221.238146552 545 195.171426006 562.624254729 169 582 c 0
 149.073242188 597.325195312 139 605 120 605 c 3
 100.40846706 605 85.7587626689 593.400192002 84 547 c 1
 12 560 l 1
EndSplineSet
EndChar

StartChar: oe
Encoding: 244 339 163
Width: 919
VWidth: 0
Flags: HMW
LayerCount: 3
Fore
SplineSet
488 297 m 1
 829 297 l 1
 829 204 l 1
 488 204 l 1
 488 297 l 1
869 24 m 1
 832 2 765 -13 702 -13 c 3
 520.926042829 -13 427 92 427 252 c 3
 427 394 516.73046875 517 674 517 c 3
 815 517 896 404 896 269 c 3
 896 247 895 225 892 204 c 1
 764 204 l 1
 767 225 769 247 769 268 c 3
 769 352 737 407 663 407 c 3
 589 407 547 351 547 249 c 3
 547 155 595 98 708 98 c 3
 766 98 827 115 869 141 c 1
 869 24 l 1
287 518 m 3
 445.858548678 518 537 402 537 252 c 3
 537 101 445.858548678 -15 287 -15 c 3
 118.610351562 -15 22 101 22 252 c 3
 22 402 118.610351562 518 287 518 c 3
287 404 m 3
 198.731445312 404 152 334.092773438 152 252 c 3
 152 169.913085938 198.731445312 99 287 99 c 3
 375.268554688 99 422 169.913085938 422 252 c 3
 422 334.092773438 375.268554688 404 287 404 c 3
EndSplineSet
EndChar

StartChar: questiondown
Encoding: 126 191 165
Width: 431
VWidth: 0
Flags: HMW
LayerCount: 3
Fore
SplineSet
306 288 m 1
 306 208.564453125 270.135742188 173.322265625 215 122 c 0
 187.517578125 96.41796875 158 68 158 22 c 3
 158 -32 202 -53 263 -53 c 3
 334.131835938 -53 383.114257812 -33.275390625 436 -1 c 1
 436 -116 l 1
 398 -143.473632812 333.756835938 -174 241 -174 c 3
 120 -174 23 -113 23 1 c 3
 23 75.1982421875 56.9462890625 117.765625 112.78125 169.06640625 c 0
 165 217.044921875 194.092773438 244 199 297 c 1
 306 297 l 1
 306 297 306 292.5 306 288 c 1
EndSplineSet
Refer: 54 46 N 1 0 0 1 138 371 2
EndChar

StartChar: cent
Encoding: 97 162 166
Width: 456
VWidth: 0
Flags: HMW
LayerCount: 3
Fore
SplineSet
222 -114 m 5
 222 58 l 1
 342 58 l 1
 342 -114 l 5
 222 -114 l 5
222 445 m 1
 222 608 l 1
 342 608 l 1
 342 445 l 1
 222 445 l 1
EndSplineSet
Refer: 42 99 N 1 0 0 1 -2 0 2
EndChar

StartChar: yen
Encoding: 100 165 167
Width: 571
VWidth: 0
Flags: HMW
LayerCount: 3
Fore
SplineSet
69 186 m 1
 501 186 l 1
 501 101 l 1
 53 101 l 1
 69 186 l 1
69 334 m 1
 501 334 l 1
 501 249 l 1
 53 249 l 1
 69 334 l 1
EndSplineSet
Refer: 22 89 N 1 0 0 1 -2 0 2
EndChar

StartChar: Euro
Encoding: 307 8364 168
Width: 617
VWidth: 0
Flags: HMW
LayerCount: 3
Fore
SplineSet
567 551 m 1
 541.270507812 560.239257812 501.872070312 572 448 572 c 3
 345.080078125 572 210 521.241210938 210 347 c 3
 210 176.276367188 332.958984375 111 455 111 c 3
 507.190429688 111 557.75 122.87890625 592 139 c 1
 592 15 l 1
 565.440429688 2.4814453125 512.767578125 -11 447 -11 c 3
 280.361328125 -11 74 72.3076171875 74 343 c 3
 74 629.174804688 306.061523438 697 466 697 c 3
 527.614257812 697 577.084960938 683.737304688 599 676 c 1
 567 551 l 1
22 312 m 5
 505 312 l 5
 483 227 l 5
 6 227 l 5
 22 312 l 5
22 460 m 5
 543 460 l 5
 521 375 l 5
 6 375 l 5
 22 460 l 5
EndSplineSet
Validated: 5
EndChar

StartChar: sterling
Encoding: 98 163 169
Width: 530
VWidth: 0
Flags: HMW
LayerCount: 3
Fore
SplineSet
106 122 m 1
 497 122 l 1
 530 0 l 1
 106 0 l 1
 106 122 l 1
28 394 m 1
 430 395 l 1
 403 286 l 1
 8 285 l 1
 28 394 l 1
41 0 m 1
 41 112 l 1
 85.3330078125 143 111 188 111 244 c 3
 111 290.330078125 101.669921875 319.533203125 92.0224609375 349 c 1
 81.693359375 380.545898438 71 414.540039062 71 473 c 3
 71 615 177.299220176 698 341 698 c 3
 403.554758955 698 458 684 497 665 c 1
 467 543 l 1
 417.03493089 567.177734375 379.818181818 577 334 577 c 3
 246.666666667 577 205 535 205 473 c 3
 205 433 215 398.292792793 225 366 c 1
 235 332.5 245 299 245 255 c 3
 245 193.713867188 224.791992188 143.180664062 182 112 c 1
 182 0 l 1
 41 0 l 1
EndSplineSet
EndChar

StartChar: twosuperior
Encoding: 113 178 175
Width: 370
VWidth: 0
Flags: HMW
LayerCount: 3
Fore
SplineSet
38 287 m 1
 95 381 l 1
 353 381 l 1
 329 287 l 1
 38 287 l 1
42 570 m 1
 67 667 l 1
 93.7169811321 680.793103448 131.566037736 692 185 692 c 3
 268.58778626 692 331 656 331 579 c 3
 331 539.65625 317.092768706 499.885519469 258 452 c 2
 200 405 l 2
 177.280818231 386.589628566 161 367 161 337 c 1
 38 287 l 1
 38 304 l 2
 38 352.375796178 61.0619845039 402.724068983 130 459 c 2
 179 499 l 2
 219 531.653061224 223 546 223 562 c 3
 223 591 201 600 160 600 c 3
 121.278151261 600 79.4146341463 590.909090909 42 570 c 1
EndSplineSet
EndChar

StartChar: threesuperior
Encoding: 114 179 176
Width: 370
VWidth: 0
Flags: HMW
LayerCount: 3
Fore
SplineSet
339 403 m 3
 339 331 272.87755102 283 173 283 c 3
 119.625 283 71.475 296 42 313 c 1
 42 405 l 1
 85.4745762712 384.257142857 119.771186441 372 177 372 c 3
 206.021060276 372 229 382.286132812 229 408 c 3
 229 441.379882812 189.010705057 453 102 453 c 1
 121 532 l 1
 193 508 l 1
 257.411764706 508 339 479 339 403 c 3
219 572 m 3
 219 596.916992188 197.021186441 606 162 606 c 3
 115 606 80.6833333333 594.352941176 43 573 c 1
 68 668 l 1
 94.4905660377 680.923076923 129.811320755 692 185 692 c 3
 265.4375 692 328 657 328 592 c 3
 328 524 259.473684211 490 223 490 c 1
 121 532 l 1
 184.012989691 532 219 542.272460938 219 572 c 3
EndSplineSet
EndChar

StartChar: onesuperior
Encoding: 120 185 177
Width: 370
VWidth: 0
Flags: HMW
LayerCount: 3
Fore
SplineSet
274 689 m 5
 274 594 l 5
 41 548 l 5
 67 649 l 5
 274 689 l 5
166 287 m 5
 166 666 l 5
 274 689 l 5
 274 287 l 5
 166 287 l 5
EndSplineSet
EndChar

StartChar: ordmasculine
Encoding: 121 186 178
Width: 469
VWidth: 0
Flags: HMW
LayerCount: 3
Fore
SplineSet
234 695 m 3
 368 695 445 605 445 488 c 3
 445 370 368 280 234 280 c 3
 100 280 24 370 24 488 c 3
 24 605 100 695 234 695 c 3
234 603 m 3
 166.908221726 603 131 550.291343952 131 488 c 3
 131 425.685630342 166.908221726 372 234 372 c 3
 301.127063679 372 338 425.685630342 338 488 c 3
 338 550.291343952 301.127063679 603 234 603 c 3
EndSplineSet
EndChar

StartChar: ordfeminine
Encoding: 105 170 179
Width: 396
VWidth: 0
Flags: HMW
LayerCount: 3
Fore
SplineSet
255 544 m 1
 255 581.35546875 219.4140625 602 169 602 c 7
 119.18359375 602 83.599609375 592 47 574 c 5
 72 668 l 1
 97.4677734375 680 140.251953125 689 181 689 c 3
 298.326171875 689 358 637 358 544 c 1
 255 544 l 1
358 544 m 1
 358 287 l 1
 260 287 l 1
 259 399 l 1
 255 399 l 1
 255 544 l 1
 358 544 l 1
134 411 m 3
 134 383 149.396484375 361 185 361 c 3
 224.861328125 361 255 390 255 439 c 1
 268 404 l 1
 268 330 223.796875 281 157 281 c 3
 78.767578125 281 30 332 30 398 c 3
 30 507.838867188 125.086914062 521.946289062 205 529 c 2
 266 534 l 1
 266 467 l 1
 195 460 l 2
 156.26953125 455.916992188 134 442.645507812 134 411 c 3
EndSplineSet
EndChar

StartChar: copyright
Encoding: 104 169 180
Width: 774
VWidth: 0
Flags: HMW
LayerCount: 3
Fore
SplineSet
387 705 m 3
 620.419921875 705 756 536.086914062 756 346 c 3
 756 153.690429688 620.419921875 -17 387 -17 c 3
 153.580078125 -17 18 153.690429688 18 346 c 3
 18 536.086914062 153.580078125 705 387 705 c 3
387 618 m 3
 212.355585336 618 113 486.570717593 113 346 c 3
 113 203.361898381 212.699679938 70 388 70 c 3
 561.988508274 70 661 203.845093664 661 347 c 3
 661 487.053913484 561.644414664 618 387 618 c 3
495.16015625 433.48046875 m 5
 477.880173142 439.42046875 451.420199008 446.98046875 415.240234375 446.98046875 c 7
 365.66572094 446.98046875 300.599609375 424.686697648 300.599609375 348.16015625 c 7
 300.599609375 272.376161135 360.302252531 243.400390625 419.559570312 243.400390625 c 7
 454.11983817 243.400390625 487.600097656 250.960108902 510.280273438 261.219726562 c 5
 510.280273438 170.5 l 5
 492.871594407 162.959963831 458.347439593 154.83984375 415.240234375 154.83984375 c 7
 320.429842126 154.83984375 203.01953125 199.826521146 203.01953125 346 c 7
 203.01953125 500.535048188 334.727074373 537.16015625 425.5 537.16015625 c 7
 466.026584343 537.16015625 498.56597745 528.975805918 512.98046875 524.200195312 c 5
 495.16015625 433.48046875 l 5
EndSplineSet
EndChar

StartChar: registered
Encoding: 109 174 181
Width: 774
VWidth: 0
Flags: HMW
LayerCount: 3
Fore
SplineSet
387 705 m 3
 620.419921875 705 756 536.086914062 756 346 c 3
 756 153.690429688 620.419921875 -17 387 -17 c 3
 153.580078125 -17 18 153.690429688 18 346 c 3
 18 536.086914062 153.580078125 705 387 705 c 3
387 618 m 3
 212.355585336 618 113 486.570717593 113 346 c 3
 113 203.361898381 212.699679938 70 388 70 c 3
 561.988508274 70 661 203.845093664 661 347 c 3
 661 487.053913484 561.644414664 618 387 618 c 3
419.91015625 362.66015625 m 1
 419.91015625 295.16015625 l 1
 320.009765625 295.16015625 l 1
 320.009765625 362.66015625 l 1
 419.91015625 362.66015625 l 1
411.809570312 532.759765625 m 1
 395.0703125 461.48046875 l 1
 320.009765625 461.48046875 l 1
 320.009765625 532.759765625 l 1
 411.809570312 532.759765625 l 1
254.129882812 161.240234375 m 1
 254.129882812 532.759765625 l 1
 348.08984375 532.759765625 l 1
 348.08984375 161.240234375 l 1
 254.129882812 161.240234375 l 1
411.809570312 532.759765625 m 1
 495.90234375 532.759765625 540.870117188 482.571289062 540.870117188 414.5 c 3
 540.870117188 347.594726562 498.2890625 295.16015625 400.469726562 295.16015625 c 1
 395.0703125 362.66015625 l 1
 430.795898438 362.66015625 446.370117188 384.54296875 446.370117188 412.879882812 c 3
 446.370117188 439.807617188 430.795898438 461.48046875 395.0703125 461.48046875 c 1
 411.809570312 532.759765625 l 1
438.809570312 161.240234375 m 1
 360.509765625 331.879882812 l 1
 461.490234375 331.879882812 l 1
 540.870117188 161.240234375 l 1
 438.809570312 161.240234375 l 1
EndSplineSet
EndChar

StartChar: dagger
Encoding: 299 8224 182
Width: 397
VWidth: 0
Flags: HMW
LayerCount: 3
Fore
SplineSet
146 -125 m 1
 146 688 l 1
 261 688 l 1
 261 -125 l 1
 146 -125 l 1
22 503 m 1
 393 503 l 1
 393 396 l 1
 2 396 l 1
 22 503 l 1
EndSplineSet
Validated: 5
EndChar

StartChar: section
Encoding: 102 167 183
Width: 513
VWidth: 0
Flags: HMW
LayerCount: 3
Fore
SplineSet
256 352 m 1
 205 344.86 163 331.453819862 163 285 c 3
 163 244.202001284 191.085279188 224.206091371 252 199 c 2
 310 175 l 2
 406.914574032 134.897417642 463 99.2349790012 463 10 c 3
 463 -111.850585938 375.717311314 -175 237 -175 c 3
 169 -175 102.844044605 -157.93877551 60 -131 c 1
 60 -3 l 1
 112.468183433 -38.3230769231 178.054357551 -59 246 -59 c 3
 292.495615983 -59 329 -40.9043810614 329 -2 c 3
 329 29.9541015625 304.039170984 41.0928497411 245 66 c 2
 181 93 l 2
 100.061554404 127.145906736 33 159.092322308 33 270 c 3
 33 361.395637516 112 418 211 418 c 1
 256 352 l 1
452 671 m 1
 423 553 l 1
 371.42372376 573.8 330.338054628 579 296 579 c 3
 234.639337225 579 199 562.440392127 199 527 c 3
 199 495.2265625 218.182741117 485.441624365 270 464 c 2
 328 440 l 2
 431.134010152 397.323857868 495 356.887716314 495 259 c 3
 495 154.933013091 415 101 319 101 c 1
 282 172 l 1
 330 175 365 192.44487473 365 241 c 3
 365 279.14110694 332 301.890625 263 331 c 2
 199 358 l 2
 125.067760716 389.190163448 65 418.553960756 65 522 c 3
 65 629.899414062 152.6640625 698 304 698 c 3
 357.73828125 698 417.642578125 687.548387097 452 671 c 1
EndSplineSet
EndChar

StartChar: multiply
Encoding: 150 215 184
Width: 497
VWidth: 0
Flags: HMW
LayerCount: 3
Fore
SplineSet
456 441 m 1
 115 100 l 1
 41 174 l 1
 382 515 l 1
 456 441 l 1
382 100 m 1
 41 441 l 1
 115 515 l 1
 456 174 l 1
 382 100 l 1
EndSplineSet
Validated: 5
EndChar

StartChar: degree
Encoding: 111 176 185
Width: 320
VWidth: 0
Flags: HMW
LayerCount: 3
Fore
SplineSet
160 688 m 3
 247.2734375 688 297 628.127929688 297 553 c 3
 297 476.857421875 247.2734375 418 160 418 c 3
 72.7265625 418 23 476.857421875 23 553 c 3
 23 628.127929688 72.7265625 688 160 688 c 3
160 619 m 3
 118.666992188 619 98 587.14453125 98 553 c 3
 98 519.827148438 118.666992188 487 160 487 c 3
 201.333007812 487 222 519.827148438 222 553 c 3
 222 587.14453125 201.333007812 619 160 619 c 3
EndSplineSet
Validated: 1
EndChar

StartChar: guilsinglleft
Encoding: 304 8249 186
Width: 348
VWidth: 0
Flags: HMW
LayerCount: 3
Fore
SplineSet
152 253 m 5
 330 52 l 1
 201 52 l 1
 18 253 l 1
 152 253 l 5
330 455 m 1
 152 253 l 5
 18 253 l 1
 201 455 l 1
 330 455 l 1
EndSplineSet
EndChar

StartChar: endash
Encoding: 291 8211 190
Width: 515
VWidth: 0
Flags: HMW
LayerCount: 3
Fore
SplineSet
481 366 m 1
 481 252 l 5
 22 252 l 5
 53 366 l 1
 481 366 l 1
EndSplineSet
Validated: 1
EndChar

StartChar: emdash
Encoding: 292 8212 191
Width: 821
VWidth: 0
Flags: HMW
LayerCount: 3
Fore
SplineSet
787 366 m 1
 787 252 l 5
 22 252 l 5
 53 366 l 1
 787 366 l 1
EndSplineSet
Validated: 1
EndChar

StartChar: bullet
Encoding: 301 8226 192
Width: 344
VWidth: 0
Flags: HMW
LayerCount: 3
Fore
SplineSet
172 441.75 m 3
 256.418634259 441.75 308 382.877819548 308 306.75 c 3
 308 230.118913858 256.418634259 171.25 172 171.25 c 7
 87.5813657407 171.25 36 230.118913858 36 306.75 c 3
 36 382.877819548 87.5813657407 441.75 172 441.75 c 3
EndSplineSet
EndChar

StartChar: currency
Encoding: 99 164 195
Width: 570
VWidth: 0
Flags: HMW
LayerCount: 3
Fore
SplineSet
365 489 m 1
 478 602 l 1
 548 531 l 1
 436 418 l 1
 365 489 l 1
199 181 m 1
 92 75 l 5
 22 146 l 5
 128 252 l 1
 199 181 l 1
428 266 m 1
 548 146 l 1
 478 75 l 1
 357 195 l 1
 428 266 l 1
139 413 m 1
 22 531 l 1
 92 602 l 1
 210 484 l 1
 139 413 l 1
285 558 m 3
 420 558 507 456 507 339 c 3
 507 221 420 119 285 119 c 3
 150 119 63 221 63 339 c 3
 63 456 150 558 285 558 c 3
285 459 m 3
 217 459 170 403 170 339 c 3
 170 275 217 218 285 218 c 3
 353 218 400 275 400 339 c 3
 400 403 353 459 285 459 c 3
EndSplineSet
Validated: 5
EndChar

StartChar: brokenbar
Encoding: 101 166 196
Width: 231
VWidth: 0
Flags: HMW
AnchorPoint: "Top" 296 744 basechar 0
LayerCount: 3
Fore
SplineSet
58 367 m 5
 58 718 l 1
 173 718 l 1
 173 367 l 5
 58 367 l 5
173 249 m 1
 173 -125 l 1
 58 -125 l 1
 58 249 l 1
 173 249 l 1
EndSplineSet
EndChar

StartChar: Thorn
Encoding: 157 222 199
Width: 562
VWidth: 0
Flags: HMW
LayerCount: 3
Fore
SplineSet
322 262 m 1
 322 141 l 1
 140 141 l 1
 140 262 l 1
 322 262 l 1
332 568 m 1
 322 447 l 1
 140 447 l 1
 140 568 l 1
 332 568 l 1
332 568 m 1
 475.459077592 568 549 476.690429688 549 361 c 3
 549 234.114257812 472.039874862 141 322 141 c 1
 322 262 l 1
 385.372930113 262 413 302.958007812 413 356 c 3
 413 406.419921875 385.372930113 447 322 447 c 1
 332 568 l 1
58 0 m 1
 58 688 l 1
 192 688 l 1
 192 0 l 1
 58 0 l 1
EndSplineSet
EndChar

StartChar: divide
Encoding: 182 247 200
Width: 483
VWidth: 0
Flags: HMW
LayerCount: 3
Fore
SplineSet
244 218.5 m 3
 286.609375 218.5 313 190.770507812 313 151.5 c 7
 313 111.810546875 286.609375 84 244 84 c 3
 201.390625 84 175 111.810546875 175 151.5 c 3
 175 190.770507812 201.390625 218.5 244 218.5 c 3
244 543 m 3
 286.608924279 543 313 514.693359375 313 476 c 3
 313 436.889648438 286.608924279 408.5 244 408.5 c 3
 202.964361236 408.5 175 434.315429688 175 476 c 3
 175 514.693359375 201.391075721 543 244 543 c 3
41 362 m 1
 459 362 l 1
 459 265 l 1
 16 265 l 1
 41 362 l 1
EndSplineSet
EndChar

StartChar: thorn
Encoding: 189 254 201
Width: 602
VWidth: 0
Flags: HMW
LayerCount: 3
Fore
SplineSet
343 -12 m 3
 223.198242188 -12 150 76.8896484375 150 188 c 1
 150 314 l 1
 150 425.15234375 222.421875 515 344 515 c 3
 490.671875 515 580 400.303710938 580 251 c 3
 580 102.69140625 490.673828125 -12 343 -12 c 3
315 99 m 7
 403.26953125 99 450 166.893333333 450 251 c 3
 450 335.099337748 403.26953125 404 315 404 c 3
 226.73046875 404 180 335.099337748 180 251 c 3
 180 166.893333333 226.73046875 99 315 99 c 7
181 718 m 1
 181 301 l 1
 180 301 l 1
 180 201 l 1
 181 201 l 1
 181 -165 l 1
 52 -165 l 1
 52 718 l 1
 181 718 l 1
EndSplineSet
EndChar

StartChar: Dcroat
Encoding: 203 272 214
Width: 707
VWidth: 0
Flags: HMW
LayerCount: 3
Fore
SplineSet
351 299.916992188 m 5
 -5 299.916992188 l 5
 17 405.833984375 l 5
 351 405.916992188 l 5
 351 299.916992188 l 5
EndSplineSet
Refer: 0 68 S 1 0 0 1 19 0 2
EndChar

StartChar: dcroat
Encoding: 204 273 215
Width: 617
VWidth: 0
Flags: HMW
LayerCount: 3
Fore
SplineSet
296 660 m 5
 610 660 l 5
 610 568 l 5
 278 568 l 5
 296 660 l 5
EndSplineSet
Refer: 36 100 N 1 0 0 1 0 0 2
EndChar

StartChar: Lslash
Encoding: 231 321 241
Width: 518
VWidth: 0
Flags: HMW
LayerCount: 3
Fore
SplineSet
354 532 m 5
 354 420 l 1
 -1 240 l 1
 -1 352 l 1
 354 532 l 5
EndSplineSet
Refer: 11 76 N 1 0 0 1 5 0 2
EndChar

StartChar: lslash
Encoding: 232 322 242
Width: 260
VWidth: 0
Flags: HMW
LayerCount: 3
Fore
SplineSet
264 515 m 5
 264 403 l 5
 -1 270 l 5
 -1 382 l 5
 264 515 l 5
EndSplineSet
Refer: 30 108 S 1 0 0 1 11 -2 2
EndChar

StartChar: florin
Encoding: 276 402 280
Width: 345
VWidth: 0
Flags: HMW
LayerCount: 3
Fore
SplineSet
22 503 m 1
 338 503 l 1
 338 396 l 1
 2 396 l 1
 22 503 l 1
81 541 m 2
 81 693 190 723 263 723 c 3
 291 723 314.419596355 718 329 712 c 1
 350 601 l 1
 333.43909842 606.5 311.356483477 612 286 612 c 3
 245.888888889 612 210 594.787878788 210 541 c 2
 210 20 l 1
 81 17 l 1
 81 541 l 2
210 20 m 17
 210 -117 143 -170 47 -170 c 3
 20 -170 -7 -165 -21 -158 c 1
 -21 -51 l 1
 -7.66666666667 -55 5 -57 19 -57 c 3
 59 -57 81 -31 81 17 c 9
 210 20 l 17
EndSplineSet
EndChar

StartChar: uni02C9
Encoding: 283 713 285
Width: 365
VWidth: 0
Flags: HMW
AnchorPoint: "Top" 182 573 mark 0
LayerCount: 3
Fore
SplineSet
13 581 m 1
 37 672 l 5
 348 672 l 1
 348 581 l 1
 13 581 l 1
EndSplineSet
EndChar

StartChar: breve
Encoding: 284 728 286
Width: 344
VWidth: 0
Flags: HMW
AnchorPoint: "Top" 172 535 mark 0
LayerCount: 3
Fore
SplineSet
240 688 m 1
 331 688 l 1
 331 580.65060241 258.982352941 526 172 526 c 19
 85.0176470588 526 13 580.65060241 13 688 c 1
 104 688 l 1
 104 637.940711461 127 603 172 603 c 3
 217 603 240 637.940711461 240 688 c 1
EndSplineSet
EndChar

StartChar: dotaccent
Encoding: 285 729 287
Width: 233
VWidth: 0
Flags: HMW
AnchorPoint: "Top" 116 574 mark 0
LayerCount: 3
Fore
SplineSet
50 576 m 5
 50 702 l 5
 183 702 l 5
 183 576 l 5
 50 576 l 5
EndSplineSet
EndChar

StartChar: ogonek
Encoding: 287 731 288
Width: 236
VWidth: 0
Flags: HMW
AnchorPoint: "Ogonek" 100 0 mark 0
LayerCount: 3
Fore
SplineSet
97 22 m 1
 151 22 l 1
 132 -9 125 -36 125 -54 c 3
 125 -74 136 -85 160 -85 c 3
 180 -85 209 -77 226 -67 c 1
 226 -153 l 1
 208 -166 173 -175 139 -175 c 3
 62 -175 25 -134 25 -84 c 3
 25 -39 55 -5 97 22 c 1
EndSplineSet
EndChar

StartChar: hungarumlaut
Encoding: 289 733 289
Width: 381
VWidth: 0
Flags: HMW
AnchorPoint: "Top" 156 522 mark 0
LayerCount: 3
Fore
SplineSet
87 522 m 1
 5 522 l 25
 83 688 l 1
 200 688 l 1
 87 522 l 1
263 522 m 1
 181 522 l 25
 259 688 l 1
 376 688 l 1
 263 522 l 1
EndSplineSet
Validated: 1
EndChar

StartChar: pi
Encoding: 290 960 290
Width: 604
VWidth: 0
Flags: HMW
LayerCount: 3
Fore
SplineSet
599 503 m 1
 599 389 l 1
 0 389 l 1
 31 503 l 1
 599 503 l 1
381 0 m 1
 381 453 l 1
 510 453 l 1
 510 0 l 1
 381 0 l 1
102 0 m 1
 102 453 l 1
 231 453 l 1
 231 0 l 1
 102 0 l 1
EndSplineSet
EndChar

StartChar: daggerdbl
Encoding: 300 8225 291
Width: 397
VWidth: 0
Flags: HMW
LayerCount: 3
Fore
SplineSet
22 233 m 5
 393 233 l 5
 393 126 l 5
 2 126 l 5
 22 233 l 5
146 -125 m 1
 146 688 l 1
 261 688 l 1
 261 -125 l 1
 146 -125 l 1
22 503 m 1
 393 503 l 1
 393 396 l 1
 2 396 l 1
 22 503 l 1
EndSplineSet
EndChar

StartChar: fraction
Encoding: 306 8260 293
Width: 564
VWidth: 0
Flags: HMW
LayerCount: 3
Fore
SplineSet
-5 0 m 1
 454 688 l 1
 569 688 l 1
 110 0 l 5
 -5 0 l 1
EndSplineSet
EndChar

StartChar: uni20BA
Encoding: 308 8378 294
Width: 520
VWidth: 0
Flags: HMW
LayerCount: 3
Fore
SplineSet
26 309 m 1
 406 383 l 1
 406 298 l 1
 10 221 l 1
 26 309 l 1
26 462 m 1
 406 536 l 1
 406 451 l 1
 10 374 l 1
 26 462 l 1
97 0 m 1
 97 688 l 1
 231 688 l 1
 231 30 l 1
 167 0 l 1
 97 0 l 1
142 0 m 1
 142 122 l 1
 221 122 l 2
 334 122 428 146 500 185 c 1
 500 65 l 1
 442.169934641 25 322 -1.44328993201e-014 184 0 c 2
 142 0 l 1
EndSplineSet
EndChar

StartChar: uni20BD
Encoding: 309 8381 295
Width: 591
VWidth: 0
Flags: HMWO
LayerCount: 3
Fore
SplineSet
351 381 m 1
 350 272 l 1
 169 272 l 1
 169 381 l 1
 351 381 l 1
358 688 m 1
 351 567 l 1
 169 567 l 1
 169 688 l 1
 358 688 l 1
87 0 m 1
 87 688 l 1
 221 688 l 1
 221 0 l 1
 87 0 l 1
358 688 m 1
 503 688 578 597 578 481 c 3
 578 361 511 272 350 272 c 1
 351 381 l 1
 415 381 443 422 443 475 c 3
 443 526 415 567 351 567 c 1
 358 688 l 1
28 208 m 1
 459 209 l 1
 430 106 l 1
 8 105 l 1
 28 208 l 1
28 380 m 1
 319 381 l 1
 290 272 l 1
 8 271 l 1
 28 380 l 1
EndSplineSet
EndChar

StartChar: uni2113
Encoding: 310 8467 296
Width: 411
VWidth: 0
Flags: HMW
LayerCount: 3
Fore
SplineSet
76 541 m 1
 76 614.23046875 110 733 247 733 c 3
 344 733 395 664 395 579 c 3
 395 351.265625 149 269 -3 269 c 1
 18 376 l 1
 133.137546468 376 285 443 285 564 c 3
 285 588.489795918 274.94140625 614 247 614 c 3
 220.64453125 614 205 591.64516129 205 551 c 1
 76 541 l 1
76 179 m 2
 76 541 l 1
 205 551 l 1
 205 190 l 2
 205 130.289156627 237 106 282 106 c 3
 313 106 342 116.782608696 367 132 c 1
 367 20 l 1
 344.638888889 7.35574794716 303 -6 256 -6 c 3
 138 -6 76 63.1208791209 76 179 c 2
EndSplineSet
EndChar

StartChar: trademark
Encoding: 311 8482 297
Width: 881
VWidth: 0
Flags: HMW
LayerCount: 3
Fore
SplineSet
340 688 m 1
 340 590 l 1
 -4 590 l 1
 23 688 l 1
 340 688 l 1
124 287 m 1
 124 659 l 1
 232 659 l 1
 232 287 l 1
 124 287 l 1
725 287 m 1
 725 688 l 1
 833 688 l 1
 833 287 l 1
 725 287 l 1
575 408 m 1
 575 437 l 1
 691 688 l 1
 776 688 l 1
 652 408 l 1
 575 408 l 1
572 408 m 1
 446 688 l 1
 534 688 l 1
 650 441 l 1
 650 408 l 1
 572 408 l 1
391 287 m 1
 391 688 l 1
 498 688 l 1
 498 287 l 1
 391 287 l 1
EndSplineSet
EndChar

StartChar: uni2126
Encoding: 312 8486 298
Width: 738
VWidth: 0
Flags: HMW
LayerCount: 3
Fore
SplineSet
532 0 m 1
 413 0 l 1
 413 180 l 1
 532 180 l 1
 532 0 l 1
702 0 m 1
 473 0 l 1
 473 119 l 1
 671 119 l 1
 702 0 l 1
206 0 m 1
 206 180 l 1
 325 180 l 1
 325 0 l 1
 206 0 l 1
36 0 m 1
 67 119 l 1
 265 119 l 1
 265 0 l 1
 36 0 l 1
369 705 m 3
 590.211914062 705 708 543.703125 708 393 c 3
 708 274.646526681 621.093869579 121 453 121 c 1
 413 180 l 1
 538.092421875 224.514648438 572 304.306640625 572 389 c 3
 572 487.08495122 502.160443474 587 369 587 c 3
 235.839556526 587 166 487.08495122 166 389 c 3
 166 304.306640625 199.907578125 224.514648438 325 180 c 1
 285 121 l 1
 116.906130421 121 30 274.646526681 30 393 c 3
 30 543.703125 147.788085938 705 369 705 c 3
EndSplineSet
EndChar

StartChar: estimated
Encoding: 313 8494 299
Width: 760
VWidth: 0
Flags: HMW
LayerCount: 3
Fore
SplineSet
685 303 m 1
 75 303 l 1
 75 387 l 1
 685 387 l 1
 685 303 l 1
547 346 m 1
 547 628 l 1
 722 346 l 1
 547 346 l 1
213 628 m 1
 213 616 l 0
 213 60 l 1
 38 346 l 1
 213 628 l 1
716.702329643 173 m 1
 661.177286449 61.4612146858 548.237613289 -17 387 -17 c 3
 155.580078125 -17 18 151.690429688 18 346 c 3
 18 538.086914062 153.783600102 705 382 705 c 3
 597.708527372 705 742 538.086914062 742 346 c 3
 742 331.504287655 741.262299402 317.151154224 739.798828125 303 c 1
 631.962890625 303 l 1
 633.979213348 317.141162685 635 331.517400567 635 346 c 3
 635 501.964574372 530.567331286 616 382 616 c 3
 218.191187705 616 125 485.537109375 125 346 c 3
 125 204.395507813 220.34914845 72 388 72 c 3
 480.693497547 72 551.226564047 112.589841458 595.658203125 173 c 1
 716.702329643 173 l 1
EndSplineSet
EndChar

StartChar: partialdiff
Encoding: 314 8706 300
Width: 546
VWidth: 0
Flags: HMW
LayerCount: 3
Fore
SplineSet
520 330 m 1
 520 96 410.216796875 -12 247 -12 c 3
 106.778320312 -12 9 87 9 217 c 3
 9 354.012695312 108.845549365 444 234 444 c 3
 328 444 400 387.811523438 400 309 c 1
 371 216 l 1
 371 277.142578125 322.150390625 323 256 323 c 3
 189.849609375 323 141 277.142578125 141 216 c 3
 141 153.859375 189.849609375 107 256 107 c 3
 322.150390625 107 371 153.859375 371 216 c 1
 393 339 l 1
 393 464.713867188 351 579 202 579 c 3
 139.807692308 579 89.7290322581 559.930232558 48 538 c 1
 81 673 l 1
 110.308082217 688.057908078 156.576923077 700 212 700 c 3
 433 700 520 528 520 330 c 1
EndSplineSet
EndChar

StartChar: uni2206
Encoding: 315 8710 301
Width: 619
VWidth: 0
Flags: HMW
LayerCount: 3
Fore
SplineSet
486 0 m 5
 259 688 l 1
 385 688 l 1
 616 24 l 1
 616 0 l 1
 486 0 l 5
3 0 m 1
 3 24 l 1
 239 688 l 5
 359 688 l 1
 129 0 l 1
 3 0 l 1
87 122 m 1
 533 122 l 1
 533 0 l 1
 87 0 l 1
 87 122 l 1
EndSplineSet
EndChar

StartChar: product
Encoding: 316 8719 302
Width: 670
VWidth: 0
Flags: HMW
LayerCount: 3
Fore
SplineSet
478 -125 m 5
 478 688 l 5
 612 688 l 5
 612 -125 l 5
 478 -125 l 5
58 -125 m 5
 58 688 l 5
 192 688 l 5
 192 -125 l 5
 58 -125 l 5
123 566 m 5
 123 688 l 5
 547 688 l 5
 547 566 l 5
 123 566 l 5
EndSplineSet
EndChar

StartChar: summation
Encoding: 317 8721 303
Width: 578
VWidth: 0
Flags: HMW
LayerCount: 3
Fore
SplineSet
275 289 m 1
 15 664 l 1
 15 688 l 1
 155 688 l 5
 441 295 l 1
 275 289 l 1
70 -125 m 1
 130 -3 l 1
 551 -3 l 1
 583 -125 l 1
 70 -125 l 1
5 -125 m 1
 5 -101 l 1
 275 289 l 1
 441 295 l 1
 139 -125 l 5
 5 -125 l 1
140 566 m 1
 80 688 l 1
 562 688 l 1
 530 566 l 1
 140 566 l 1
EndSplineSet
EndChar

StartChar: minus
Encoding: 318 8722 304
Width: 463
VWidth: 0
Flags: HMW
LayerCount: 3
Fore
SplineSet
44 367 m 1
 439 367 l 5
 439 259 l 5
 16 259 l 1
 44 367 l 1
EndSplineSet
Validated: 1
EndChar

StartChar: uni2219
Encoding: 320 8729 306
Width: 256
VWidth: 0
Flags: HMW
LayerCount: 3
Fore
SplineSet
128 404.75 m 3
 182.783203125 404.75 218 367.571289062 218 316.75 c 3
 218 265.471679688 182.783203125 228.25 128 228.25 c 3
 73.216796875 228.25 38 265.471679688 38 316.75 c 3
 38 367.571289062 73.216796875 404.75 128 404.75 c 3
EndSplineSet
Validated: 1
EndChar

StartChar: radical
Encoding: 321 8730 307
Width: 556
VWidth: 0
Flags: HMW
LayerCount: 3
Fore
SplineSet
42 413.916992188 m 1
 143 413.916992188 l 1
 143 293 l 1
 10 292.916992188 l 1
 42 413.916992188 l 1
254 0 m 1
 416 688 l 1
 538 688 l 1
 373 0 l 1
 254 0 l 1
233 0 m 1
 48.1376953125 390 l 1
 42 414 l 1
 176 414 l 1
 351 0 l 1
 233 0 l 1
EndSplineSet
EndChar

StartChar: infinity
Encoding: 322 8734 308
Width: 772
VWidth: 0
Flags: HMW
LayerCount: 3
Fore
SplineSet
30 302 m 1
 149 302 l 1
 149 258 176 221 227 221 c 3
 277.087719298 221 297.317152452 252.25163179 339 319 c 0
 412.688333401 437 450.028037383 494 555 494 c 3
 674 494 742 402 742 303 c 1
 623 303 l 1
 623 346 596 384 545 384 c 3
 493.912280702 384 470.975575215 350.623418501 433 287 c 0
 364.358747256 172 323.990654206 111 217 111 c 3
 98 111 30 204 30 302 c 1
30 302 m 1
 30 401 98 494 217 494 c 3
 324.536231884 494 365.593595863 432 429 322 c 0
 467.075067622 255.945829361 492.272727273 221 545 221 c 3
 596 221 623 259 623 303 c 1
 742 303 l 1
 742 204 674 111 555 111 c 3
 453.564593301 111 414.679887601 160 343 284 c 0
 309.132847298 342.58724219 281.588235294 384 227 384 c 3
 176 384 149 347 149 302 c 1
 30 302 l 1
EndSplineSet
EndChar

StartChar: integral
Encoding: 323 8747 309
Width: 348
VWidth: 0
Flags: HMW
LayerCount: 3
Fore
SplineSet
196 20 m 6
 196 -117 129 -170 33 -170 c 3
 6 -170 -21 -165 -35 -158 c 1
 -35 -51 l 1
 -21.6666666667 -55 -9 -57 5 -57 c 3
 45 -57 67 -31 67 17 c 6
 67 546 l 2
 67 689 167.847858297 723 239 723 c 3
 256.539778646 723 270.742078993 720.727539062 280 718 c 1
 300 608 l 1
 290.943237305 610 278.866699219 612 265 612 c 3
 228.582911532 612 196 594 196 546 c 2
 196 20 l 6
EndSplineSet
EndChar

StartChar: approxequal
Encoding: 324 8776 310
Width: 495
VWidth: 0
Flags: HMW
LayerCount: 3
Fore
SplineSet
39 232 m 1
 65.302734375 256.700195312 107.0234375 289 156 289 c 3
 192.666992188 289 219.127929688 275.260742188 251 253.934570312 c 0
 284 231.854492188 309.630859375 219 344 219 c 3
 385.4140625 219 419.345703125 244.650390625 456 276 c 1
 456 168 l 5
 433.307617188 140.450195312 390.646484375 111 338 111 c 7
 301.411132812 111 278.735351562 123.258789062 243 146.244140625 c 4
 208.428710938 168.48046875 185.720703125 181 151 181 c 7
 102.859375 181 69.826171875 151.549804688 39 124 c 5
 39 232 l 1
39 425 m 1
 65.302734375 449.700195312 107.0234375 482 156 482 c 3
 192.666992188 482 219.127929688 468.260742188 251 446.934570312 c 0
 284 424.854492188 309.630859375 412 344 412 c 3
 385.4140625 412 419.345703125 437.650390625 456 469 c 1
 456 361 l 1
 433.307617188 333.450195312 390.646484375 304 338 304 c 3
 301.411132812 304 278.735351562 316.258789062 243 339.244140625 c 0
 208.428710938 361.48046875 185.720703125 374 151 374 c 3
 102.859375 374 69.826171875 344.549804688 39 317 c 1
 39 425 l 1
EndSplineSet
EndChar

StartChar: notequal
Encoding: 325 8800 311
Width: 504
VWidth: 0
Flags: HMW
LayerCount: 3
Fore
SplineSet
394 558 m 1
 211 48 l 5
 118 48 l 1
 301 558 l 1
 394 558 l 1
EndSplineSet
Refer: 91 61 N 1 0 0 1 0 0 2
EndChar

StartChar: lessequal
Encoding: 326 8804 312
Width: 466
VWidth: 0
Flags: HMW
LayerCount: 3
Fore
SplineSet
421 81 m 5
 35 224 l 5
 35 123 l 1
 421 -20 l 1
 421 81 l 5
421 261 m 5
 35 394 l 5
 35 301 l 5
 421 152 l 5
 421 261 l 5
421 450 m 5
 421 559 l 5
 35 410 l 5
 35 317 l 5
 421 450 l 5
EndSplineSet
EndChar

StartChar: greaterequal
Encoding: 327 8805 313
Width: 466
VWidth: 0
Flags: HMW
LayerCount: 3
Fore
SplineSet
45 81 m 5
 431 224 l 5
 431 123 l 1
 45 -20 l 1
 45 81 l 5
45 258 m 5
 431 394 l 5
 431 301 l 5
 45 152 l 5
 45 258 l 5
45 450 m 5
 45 559 l 5
 431 410 l 5
 431 317 l 5
 45 450 l 5
EndSplineSet
EndChar

StartChar: lozenge
Encoding: 328 9674 314
Width: 602
VWidth: 0
Flags: HMW
LayerCount: 3
Fore
SplineSet
154 344 m 1
 367 0 l 1
 231 0 l 1
 10 344 l 1
 154 344 l 1
592 344 m 1
 371 0 l 1
 235 0 l 1
 448 344 l 1
 592 344 l 1
448 344 m 1
 235 688 l 1
 371 688 l 1
 592 344 l 1
 448 344 l 1
10 344 m 1
 231 688 l 1
 367 688 l 1
 154 344 l 1
 10 344 l 1
EndSplineSet
EndChar

StartChar: uni00B5
Encoding: 116 181 318
Width: 536
VWidth: 0
Flags: HMW
LayerCount: 3
Fore
SplineSet
484 503 m 1
 484 0 l 1
 361 0 l 1
 360 143 l 1
 355 143 l 1
 355 503 l 1
 484 503 l 1
372 150 m 1
 372 55.2075471698 316 -7 229 -7 c 3
 144 -7 91 72.0243902439 91 155 c 1
 175 202 l 1
 175 156.455028132 193.312213319 123.469292328 231 112.747070312 c 0
 239.643301001 110.288042658 249.305692078 109 260 109 c 3
 320.1015625 109 355 147.6484375 355 219 c 1
 372 150 l 1
46 -165 m 1
 46 503 l 1
 175 503 l 1
 175 -165 l 1
 46 -165 l 1
EndSplineSet
Validated: 5
EndChar

StartChar: less
Encoding: 28 60 319
Width: 446
VWidth: 0
Flags: HMW
LayerCount: 3
Fore
SplineSet
411 147 m 5
 411 28 l 5
 25 217 l 5
 25 330 l 5
 411 147 l 5
411 405 m 5
 25 222 l 5
 25 335 l 5
 411 524 l 5
 411 405 l 5
EndSplineSet
Validated: 5
EndChar

StartChar: asciicircum
Encoding: 62 94 321
Width: 505
VWidth: 0
Flags: HMW
LayerCount: 3
Fore
SplineSet
126 352 m 5
 300 688 l 5
 180 688 l 5
 4 352 l 5
 126 352 l 5
378 352 m 5
 500 352 l 5
 324 688 l 5
 204 688 l 5
 378 352 l 5
EndSplineSet
Validated: 5
EndChar

StartChar: asciitilde
Encoding: 94 126 322
Width: 509
VWidth: 0
Flags: HMW
LayerCount: 3
Fore
SplineSet
494 389 m 1
 494 283.38229583 429 218 338 218 c 3
 293.557617188 218 263.3671875 242.3045836 233 267 c 0
 198.816628325 294.798840359 184.62890625 306 164 306 c 3
 133 306 110.677734375 284.333007812 107 215 c 1
 15 232 l 1
 15 340.087890625 81 407 171 407 c 3
 213.413085938 407 245.832454427 386.023053178 278 358 c 0
 312.206054688 328.201080858 323.373046875 319 344 319 c 3
 376 319 399.099609375 339.714055842 402 406 c 1
 494 389 l 1
EndSplineSet
Validated: 1
EndChar

StartChar: logicalnot
Encoding: 107 172 323
Width: 495
VWidth: 0
Flags: HMW
LayerCount: 3
Fore
SplineSet
349 129 m 5
 349 366 l 1
 459 366 l 1
 459 129 l 5
 349 129 l 5
43 414 m 1
 459 414 l 1
 459 310 l 1
 16 310 l 1
 43 414 l 1
EndSplineSet
Validated: 5
EndChar

StartChar: plusminus
Encoding: 112 177 326
Width: 487
VWidth: 0
Flags: HMW
LayerCount: 3
Fore
SplineSet
50 132 m 1
 452 132 l 1
 452 35 l 1
 25 35 l 1
 50 132 l 1
191 177 m 1
 191 569 l 1
 298 569 l 1
 298 177 l 1
 191 177 l 1
50 427 m 5
 452 427 l 5
 452 330 l 5
 25 330 l 5
 50 427 l 5
EndSplineSet
Validated: 5
EndChar

StartChar: paragraph
Encoding: 117 182 327
Width: 595
VWidth: 0
Flags: HMW
LayerCount: 3
Fore
SplineSet
537 -125 m 1
 423 -125 l 1
 423 688 l 1
 537 688 l 1
 537 -125 l 1
304 261 m 1
 235 261 l 1
 89.5576171875 261 15 352.309570312 15 472 c 3
 15 594.885742188 93.3162506913 688 246 688 c 1
 304 688 l 1
 304 581 l 1
 237 581 l 2
 162 581 129 536 129 475 c 3
 129 414.372944307 162 368 237 368 c 2
 304 368 l 1
 304 261 l 1
349 -125 m 1
 235 -125 l 1
 235 648 l 1
 277 688 l 1
 349 688 l 1
 349 -125 l 1
EndSplineSet
EndChar

StartChar: eth
Encoding: 175 240 331
Width: 552
VWidth: 0
Flags: HMW
LayerCount: 3
Fore
SplineSet
148 629 m 1
 455 705 l 1
 455 613 l 1
 129 532 l 1
 148 629 l 1
282 718 m 1
 425.579101562 644.637695312 530 496 530 308 c 1
 530 96 420.216796875 -12 265 -12 c 3
 114.778320312 -12 19 99.9697265625 19 247 c 3
 19 398.499023438 118.401367188 497 243 497 c 3
 347 497 433 413.478515625 433 282 c 1
 389 245 l 1
 389 327.28515625 338.451171875 382 270 382 c 3
 201.548828125 382 151 327.28515625 151 245 c 3
 151 161.756835938 201.548828125 106 270 106 c 3
 338.451171875 106 389 161.756835938 389 245 c 1
 416 331 l 1
 416 493.958007812 295.743164062 621.338867188 129 710 c 1
 129 718 l 1
 282 718 l 1
EndSplineSet
EndChar

StartChar: a.ss01
Encoding: 333 -1 333
Width: 602
VWidth: 0
Flags: HMW
AnchorPoint: "Top" 295 574 basechar 0
AnchorPoint: "Ogonek" 446 -1 basechar 0
LayerCount: 3
Fore
SplineSet
254 515 m 3
 373.801757812 515 452 426.110351562 452 315 c 1
 452 189 l 1
 452 77.84765625 374.578125 -12 252 -12 c 3
 111.328125 -12 22 102.696289062 22 252 c 3
 22 400.30859375 111.326171875 515 254 515 c 3
287 405 m 3
 198.73046875 405 152 336.106445312 152 252 c 3
 152 167.900390625 198.73046875 98 287 98 c 3
 375.26953125 98 422 167.900390625 422 252 c 3
 422 336.106445312 375.26953125 405 287 405 c 3
550 0 m 1
 425 0 l 1
 424 142 l 1
 421 142 l 1
 421 200 l 1
 422 200 l 1
 422 300 l 1
 421 300 l 1
 421 359 l 1
 424 359 l 1
 425 503 l 1
 550 503 l 1
 550 0 l 1
EndSplineSet
EndChar

StartChar: commasubnosp
Encoding: 343 806 343
Width: 230
VWidth: 0
Flags: HMW
AnchorPoint: "Bottom" 125 -41 mark 0
LayerCount: 3
Fore
SplineSet
60 -171 m 7
 95.0908203125 -171 110 -160.998046875 110 -138 c 6
 110 -126 l 5
 51 -107 l 5
 51 -41 l 5
 193 -41 l 5
 193 -126 l 6
 193 -196.939034598 148.439883475 -237 81 -237 c 7
 67.0865625 -237 44.7578125 -233.75 30 -227 c 5
 30 -166 l 5
 40.2412109375 -170 49.7583984375 -171 60 -171 c 7
EndSplineSet
EndChar

StartChar: .notdef
Encoding: 344 -1 344
Width: 640
VWidth: 0
Flags: HMW
LayerCount: 3
Fore
SplineSet
510 688 m 1
 510 584 l 5
 130 584 l 5
 130 688 l 1
 510 688 l 1
466 688 m 1
 582 688 l 1
 582 0 l 1
 466 0 l 1
 466 688 l 1
174 0 m 1
 58 0 l 1
 58 688 l 1
 174 688 l 1
 174 0 l 1
130 0 m 1
 130 104 l 1
 510 104 l 1
 510 0 l 1
 130 0 l 1
EndSplineSet
EndChar

StartChar: foursuperior
Encoding: 345 8308 345
Width: 370
VWidth: 0
Flags: HMW
LayerCount: 3
Fore
SplineSet
18 445 m 1
 56 446 l 1
 374 446 l 1
 359 364 l 1
 18 364 l 1
 18 445 l 1
214 287 m 1
 214 524 l 1
 322 554 l 1
 322 287 l 1
 214 287 l 1
18 445 m 1
 157 688 l 1
 274 688 l 5
 130 445 l 1
 18 445 l 1
EndSplineSet
EndChar

StartChar: zerosuperior
Encoding: 346 8304 346
Width: 370
VWidth: 0
Flags: HMW
LayerCount: 3
Fore
SplineSet
184 694 m 3
 294.469047619 694 356 621.6 356 488 c 3
 356 353.398058252 294.469047619 281 184 281 c 3
 74.5124294647 281 14 353.398058252 14 488 c 3
 14 621.6 74.5124294647 694 184 694 c 3
184 602 m 3
 145.086206897 602 123 570.27843266 123 488 c 7
 123 405.699098821 145.086206897 373 184 373 c 3
 223.9 373 247 405.699098821 247 488 c 7
 247 570.27843266 223.9 602 184 602 c 3
EndSplineSet
EndChar

StartChar: zero.pnum
Encoding: 347 -1 347
Width: 592
VWidth: 0
Flags: MW
LayerCount: 3
Fore
SplineSet
295 700 m 3
 467.95703125 700 567 576.854492188 567 346 c 7
 567 112.91796875 467.95703125 -12 295 -12 c 3
 123.3515625 -12 25 112.91796875 25 346 c 7
 25 576.854492188 123.3515625 700 295 700 c 3
295 579 m 3
 211.471679688 579 160 506.575195312 160 346 c 7
 160 183.342773438 211.471679688 109 295 109 c 3
 379.83984375 109 432 183.342773438 432 346 c 7
 432 506.575195312 379.83984375 579 295 579 c 3
EndSplineSet
Substitution2: "'tnum' Tabular Numbers lookup 3-1" zero
EndChar

StartChar: eight.pnum
Encoding: 355 -1 355
Width: 560
VWidth: 0
Flags: HMW
LayerCount: 3
Fore
SplineSet
280 371 m 3
 451.403779644 371 540 304.221035684 540 188 c 3
 540 76.657502762 445.212682189 -14 280 -14 c 3
 114.787317811 -14 20 75.7599037247 20 186 c 3
 20 303.491210938 108.596220356 371 280 371 c 3
280 299 m 3
 199.552283654 299 157 253.467813297 157 200 c 3
 157 146.349234533 199.552283654 100 280 100 c 3
 361.129407051 100 403 147.739091797 403 203 c 3
 403 254.847615979 361.129407051 299 280 299 c 3
280 702 m 7
 432.504694206 702 520 614.390923109 520 511 c 3
 520 409.035867504 442.893642704 336 280 336 c 3
 117.106357296 336 40 408.201171875 40 509 c 3
 40 613.473550577 127.495305794 702 280 702 c 7
280 590 m 7
 213.426254735 590 175 547.687586805 175 498 c 3
 175 448.641225962 213.426254735 406 280 406 c 3
 346.573745265 406 385 449.568209135 385 500 c 3
 385 548.607421875 346.573745265 590 280 590 c 7
EndSplineSet
Substitution2: "'tnum' Tabular Numbers lookup 3-1" eight
EndChar

